<?xml version="1.0" encoding="UTF-8" standalone="no"?>
<!-- Created with Inkscape (http://www.inkscape.org/) -->

<svg
   xmlns:dc="http://purl.org/dc/elements/1.1/"
   xmlns:cc="http://creativecommons.org/ns#"
   xmlns:rdf="http://www.w3.org/1999/02/22-rdf-syntax-ns#"
   xmlns:svg="http://www.w3.org/2000/svg"
   xmlns="http://www.w3.org/2000/svg"
   xmlns:sodipodi="http://sodipodi.sourceforge.net/DTD/sodipodi-0.dtd"
   xmlns:inkscape="http://www.inkscape.org/namespaces/inkscape"
   width="800"
   height="800"
   id="svg2"
   version="1.1"
   inkscape:version="0.48.4 r9939"
   sodipodi:docname="New document 1">
  <defs
     id="defs4" />
  <sodipodi:namedview
     id="base"
     pagecolor="#ffffff"
     bordercolor="#666666"
     borderopacity="1.0"
     inkscape:pageopacity="0.0"
     inkscape:pageshadow="2"
     inkscape:zoom="1.4"
     inkscape:cx="324.72376"
     inkscape:cy="326.42583"
     inkscape:document-units="px"
     inkscape:current-layer="layer1"
     showgrid="true"
     inkscape:object-paths="true"
     inkscape:object-nodes="true"
     showguides="true"
     inkscape:guide-bbox="true"
     inkscape:snap-bbox="true"
     inkscape:snap-nodes="false"
     inkscape:snap-grids="true"
     inkscape:snap-to-guides="false"
     inkscape:bbox-nodes="true"
     inkscape:window-width="1920"
     inkscape:window-height="1055"
     inkscape:window-x="0"
     inkscape:window-y="0"
     inkscape:window-maximized="1">
    <inkscape:grid
       type="xygrid"
       id="grid2985"
       empspacing="4"
       visible="true"
       enabled="true"
       snapvisiblegridlinesonly="true"
       spacingx="50px"
       spacingy="50px" />
  </sodipodi:namedview>
  <metadata
     id="metadata7">
    <rdf:RDF>
      <cc:Work
         rdf:about="">
        <dc:format>image/svg+xml</dc:format>
        <dc:type
           rdf:resource="http://purl.org/dc/dcmitype/StillImage" />
        <dc:title></dc:title>
      </cc:Work>
    </rdf:RDF>
  </metadata>
  <g
     inkscape:label="Layer 1"
     inkscape:groupmode="layer"
     id="layer1"
     transform="translate(0,-252.36218)">
    <rect
       style="fill:none;fill-opacity:1;stroke:#000000;stroke-width:1;stroke-miterlimit:4;stroke-dasharray:none"
       id="rect2987"
       width="700"
       height="700"
       x="50"
       y="50"
       transform="translate(0,252.36218)" />
    <path
       sodipodi:type="arc"
       style="fill:none;stroke:#000000;stroke-width:1;stroke-miterlimit:4;stroke-dasharray:none"
       id="path2991"
       sodipodi:cx="400"
       sodipodi:cy="500"
       sodipodi:rx="250"
       sodipodi:ry="250"
       d="m 650,500 a 250,250 0 1 1 -500,0 250,250 0 1 1 500,0 z"
       transform="translate(0,252.36218)" />
    <rect
       style="fill:none;stroke:#000000;stroke-width:1;stroke-miterlimit:4;stroke-dasharray:none"
       id="rect2993"
       width="100"
       height="450"
       x="150"
       y="50"
       transform="translate(0,252.36218)" />
    <path
       sodipodi:type="arc"
       style="fill:none;stroke:#000000;stroke-width:0.94280905;stroke-miterlimit:4;stroke-dasharray:none"
       id="path3019"
       sodipodi:cx="400"
       sodipodi:cy="350"
       sodipodi:rx="100"
       sodipodi:ry="100"
       d="m 400,450 a 100,100 0 1 1 0,-200"
       transform="matrix(0.74999999,0.75,-0.74999999,0.75,437.5,64.862179)"
       sodipodi:start="1.5707963"
       sodipodi:end="4.712389"
       sodipodi:open="true" />
    <path
       sodipodi:type="arc"
       style="fill:none;stroke:#000000;stroke-width:1.33987236;stroke-miterlimit:4;stroke-dasharray:none"
       id="path3023"
       sodipodi:cx="400"
       sodipodi:cy="450"
       sodipodi:rx="200"
       sodipodi:ry="200"
       d="m 600,450 a 200,200 0 1 1 -400,0 200,200 0 1 1 400,0 z"
       transform="matrix(-0.74633977,0,0,-0.74633977,697.80386,1088.2151)" />
    <path
       style="fill:none;stroke:#000000;stroke-width:1;stroke-linecap:butt;stroke-linejoin:miter;stroke-opacity:1;stroke-miterlimit:4;stroke-dasharray:none"
       d="m 200,902.36218 400,-400"
       id="path3025"
       inkscape:connector-curvature="0" />
    <path
       style="fill:none;stroke:#000000;stroke-width:1;stroke-linecap:butt;stroke-linejoin:miter;stroke-opacity:1;stroke-miterlimit:4;stroke-dasharray:none"
       d="m 600,902.36218 -400,-400"
       id="path3027"
       inkscape:connector-curvature="0" />
    <path
       transform="matrix(0.74999999,0.75,-0.74999999,0.75,287.5,214.86218)"
       d="m 400,250 a 100,100 0 0 1 70.71068,170.71068"
       sodipodi:ry="100"
       sodipodi:rx="100"
       sodipodi:cy="350"
       sodipodi:cx="400"
       id="path3029"
       style="fill:none;stroke:#000000;stroke-width:0.94280905;stroke-miterlimit:4;stroke-dasharray:none"
       sodipodi:type="arc"
       sodipodi:start="4.712389"
       sodipodi:end="7.0685835"
       sodipodi:open="true" />
    <path
       transform="matrix(0,1.0606602,-1.0606602,0,846.23106,203.09811)"
       d="m 500,350 a 100,100 0 1 1 -200,0 100,100 0 1 1 200,0 z"
       sodipodi:ry="100"
       sodipodi:rx="100"
       sodipodi:cy="350"
       sodipodi:cx="400"
       id="path3031"
       style="fill:none;stroke:#000000;stroke-width:0.94280902;stroke-miterlimit:4;stroke-dasharray:none"
       sodipodi:type="arc" />
    <path
       sodipodi:type="arc"
       style="fill:none;stroke:#000000;stroke-width:0.94280902;stroke-miterlimit:4;stroke-dasharray:none"
       id="path3033"
       sodipodi:cx="400"
       sodipodi:cy="350"
       sodipodi:rx="100"
       sodipodi:ry="100"
       d="m 500,350 a 100,100 0 1 1 -200,0 100,100 0 1 1 200,0 z"
       transform="matrix(0,1.0606602,-1.0606602,0,696.23106,353.09811)" />
    <path
       sodipodi:type="arc"
       style="fill:none;stroke:#000000;stroke-width:0.5;stroke-miterlimit:4;stroke-dasharray:none"
       id="path3037"
       sodipodi:cx="453.03299"
       sodipodi:cy="503.03302"
       sodipodi:rx="128.033"
       sodipodi:ry="128.033"
       d="m 581.06599,503.03302 a 128.033,128.033 0 1 1 -256.06601,0 128.033,128.033 0 1 1 256.06601,0 z"
       transform="matrix(2,0,0,2,-581.06598,-378.70386)" />
  </g>
</svg>
