<svg xmlns="http://www.w3.org/2000/svg" width="300" height="300" version="1">
  <style>
    @import "../style.css";
    path {
      stroke-width:2;
    }
  </style>
  <path stroke="var(--c0, #101)" d="M113 90c5 21-2 22-16 19 11-1 15-8 16-19z"/>
  <path fill="var(--c7, #ded)" stroke="var(--c0, #101)" d="M99 224c-2-2-3-10-7-9-8 0 0 21 6 21 5 0 19-20 22-26 2-2-1-9-6-4-4 5-12 20-15 18z"/>
  <path fill="var(--c7, #ded)" stroke="var(--c0, #101)" d="M147 221c-1 5-2 10-5 14-4-1-3-7-7-7-10 0 5 19 7 20 4 1 5-4 6-7l14-31c2-5 1-11-1-16-10-32 13-66 17-81 12-45-51-58-62-23l-12 36c-7 17-11 44-7 60 2 11 21 34 50 35z"/>
  <path fill="var(--cA, #6a2)" stroke="var(--c2, #362)" d="M103 127c20 16 49 7 64 14-4 19-7 18-8 34-10 2-27 2-41 2-9 7-19 4-29 4 0 0 5-10 5-30 2-8 4-17 9-24z"/>
  <path fill="var(--c7, #ded)" stroke="var(--c0, #101)" d="M140 162l-5 16-3 3c-13 5-7 11-1 7 0 7 6 8 7 0 6 5 13 3 6-4-3-2-3-4-3-6l6-15c1-3-6-6-7-1z"/>
  <path fill="var(--cA, #6a2)" stroke="var(--c2, #362)" d="M143 146c-1 5-2 9-6 17 5 1 11 2 11 5 4-10 3-16 5-21"/>
  <path fill="none" stroke="var(--c0, #101)" d="M137 103c-7 7-10 4-12 6-5 6 6 8 8 8 2-1 3-3 0-5m-25 4c12 5 23 15 48 11"/>
  <path fill="var(--c7, #ded)" stroke="var(--c0, #101)" d="M145 108c10-11 24 1 21 7-7 11-28 1-21-7z"/>
  <path fill="var(--cD, #843)" stroke="var(--c0, #101)" d="M147 106c6-6 14 2 12 6-5 5-18-1-12-6z"/>
  <path fill="var(--c7, #ded)" stroke="var(--c0, #101)" d="M132 102c0-15-18-10-19-5-2 13 19 12 19 5z"/>
  <path fill="var(--cD, #843)" stroke="var(--c0, #101)" d="M115 95c7-6 13 2 10 5-4 6-15 0-10-5z"/>
  <path fill="var(--c0, #101)" stroke="var(--c0, #101)" d="M170 72c-16-22-48 5-73 0 4 3 8 7 15 7-4 3-10 3-16 4 6 1 11 5 21 2-5 5-10 6-20 7 17 4 37 2 49-2-2 4-8 7-14 9 10 1 18 2 36 0 0 12-1 16-3 22 3-1 5-3 8-11-1 11-3 17-13 22h8c-2 6 1 11 3 13-1-5 0-9 2-13 2 6 5 11 8 11-2-6-1-10-1-16 3 6 8 8 12 8-13-12 8-62-22-63z"/>
</svg>
