<?xml version="1.0" encoding="UTF-8" standalone="no"?>
<!-- Created with Inkscape (http://www.inkscape.org/) -->

<svg
   xmlns:dc="http://purl.org/dc/elements/1.1/"
   xmlns:cc="http://creativecommons.org/ns#"
   xmlns:rdf="http://www.w3.org/1999/02/22-rdf-syntax-ns#"
   xmlns:svg="http://www.w3.org/2000/svg"
   xmlns="http://www.w3.org/2000/svg"
   xmlns:sodipodi="http://sodipodi.sourceforge.net/DTD/sodipodi-0.dtd"
   xmlns:inkscape="http://www.inkscape.org/namespaces/inkscape"
   width="512"
   height="512"
   viewBox="0 0 512.00001 512.00001"
   id="svg2"
   version="1.1"
   inkscape:version="0.91 r13725"
   sodipodi:docname="logo.svg">
  <defs
     id="defs4" />
  <sodipodi:namedview
     id="base"
     pagecolor="#ffffff"
     bordercolor="#666666"
     borderopacity="1.0"
     inkscape:pageopacity="0.0"
     inkscape:pageshadow="2"
     inkscape:zoom="1.4"
     inkscape:cx="181.4749"
     inkscape:cy="246.57441"
     inkscape:document-units="px"
     inkscape:current-layer="layer1"
     showgrid="true"
     units="px"
     inkscape:window-width="1920"
     inkscape:window-height="1043"
     inkscape:window-x="0"
     inkscape:window-y="18"
     inkscape:window-maximized="0"
     inkscape:object-nodes="true">
    <inkscape:grid
       type="xygrid"
       id="grid4133"
       spacingx="16"
       spacingy="16"
       empspacing="4" />
  </sodipodi:namedview>
  <metadata
     id="metadata7">
    <rdf:RDF>
      <cc:Work
         rdf:about="">
        <dc:format>image/svg+xml</dc:format>
        <dc:type
           rdf:resource="http://purl.org/dc/dcmitype/StillImage" />
        <dc:title></dc:title>
        <dc:creator>
          <cc:Agent>
            <dc:title>Ben N</dc:title>
          </cc:Agent>
        </dc:creator>
      </cc:Work>
    </rdf:RDF>
  </metadata>
  <g
     inkscape:label="Layer 1"
     inkscape:groupmode="layer"
     id="layer1"
     transform="translate(0,-540.36216)">
    <path
       style="opacity:1;fill:none;fill-opacity:1;stroke:#fdf9ad;stroke-width:16;stroke-linecap:round;stroke-linejoin:round;stroke-miterlimit:4;stroke-dasharray:none;stroke-opacity:1"
       d="m 31.999995,588.36218 15.999999,-16 31.999997,0 16.000002,16 -4e-6,128 16.000001,16 128.00001,0 16,16 0,31.99999 -16,16 -192.000008,0 -15.999999,-16 z"
       id="path4135"
       inkscape:connector-curvature="0"
       sodipodi:nodetypes="ccccccccccccc" />
    <path
       style="opacity:1;fill:none;fill-opacity:1;stroke:#fdf9ad;stroke-width:16;stroke-linecap:round;stroke-linejoin:round;stroke-miterlimit:4;stroke-dasharray:none;stroke-opacity:1"
       d="m 47.999995,796.36216 -16,16 0,192.00004 16,16 192.000005,0 16,-16 0,-32.00004 0,-64 -16,-16 -32,0 -16,16 0,32 -16,16 -64,0 -16.000005,-16 0,-64 16.000005,-16 96,0 32,0 16,-16 0,-32 -16,-16 -160.000005,0 z"
       id="path4139"
       inkscape:connector-curvature="0"
       sodipodi:nodetypes="cccccccccccccccccccccccc" />
    <path
       id="path4147"
       style="opacity:1;fill:none;fill-opacity:1;stroke:#fdf9ad;stroke-width:16;stroke-linecap:round;stroke-linejoin:round;stroke-miterlimit:4;stroke-dasharray:none;stroke-opacity:1"
       d="m 319.99999,876.36217 16,-16 64,0 16,16 0,64 -16,16 -64,0 -16,-16 z m -64,-64 16,-16 192,0 16,16 0,192.00003 -16,16 -192,0 -16,-16 z"
       inkscape:connector-curvature="0" />
    <path
       d="m 319.99999,652.36212 16,-16 64,0 16,16 0,64 -16,16 -64,0 -16,-16 z m -64,-64 16,-16 192,0 16,16 0,192.00004 -16,16 -192,0 -16,-16 z"
       style="opacity:1;fill:none;fill-opacity:1;stroke:#fdf9ad;stroke-width:16;stroke-linecap:round;stroke-linejoin:round;stroke-miterlimit:4;stroke-dasharray:none;stroke-opacity:1"
       id="path4152"
       inkscape:connector-curvature="0" />
  </g>
</svg>
