<?xml version="1.0" encoding="UTF-8" standalone="no"?>
<!-- Created with Inkscape (http://www.inkscape.org/) -->

<svg
   xmlns:dc="http://purl.org/dc/elements/1.1/"
   xmlns:cc="http://creativecommons.org/ns#"
   xmlns:rdf="http://www.w3.org/1999/02/22-rdf-syntax-ns#"
   xmlns:svg="http://www.w3.org/2000/svg"
   xmlns="http://www.w3.org/2000/svg"
   xmlns:sodipodi="http://sodipodi.sourceforge.net/DTD/sodipodi-0.dtd"
   xmlns:inkscape="http://www.inkscape.org/namespaces/inkscape"
   width="320"
   height="180"
   viewBox="0 0 320 180"
   id="svg2"
   version="1.1"
   inkscape:version="0.91 r13725"
   sodipodi:docname="prophecy.svg">
  <defs
     id="defs4">
    <filter
       inkscape:collect="always"
       style="color-interpolation-filters:sRGB"
       id="filter4406"
       x="-0.068180155"
       width="1.1363603"
       y="-0.053572455"
       height="1.1071449">
      <feGaussianBlur
         inkscape:collect="always"
         stdDeviation="4.1738377"
         id="feGaussianBlur4408" />
    </filter>
    <clipPath
       clipPathUnits="userSpaceOnUse"
       id="clipPath4682">
      <rect
         y="872.36218"
         x="0"
         height="180"
         width="320"
         id="rect4684"
         style="opacity:1;fill:#000000;fill-opacity:1;stroke:none;stroke-width:1;stroke-linecap:butt;stroke-linejoin:miter;stroke-miterlimit:4;stroke-dasharray:none;stroke-opacity:1" />
    </clipPath>
    <clipPath
       clipPathUnits="userSpaceOnUse"
       id="clipPath4686">
      <rect
         y="-1.7382812e-05"
         x="0"
         height="180"
         width="320"
         id="rect4688"
         style="opacity:1;fill:#000000;fill-opacity:1;stroke:none;stroke-width:1;stroke-linecap:butt;stroke-linejoin:miter;stroke-miterlimit:4;stroke-dasharray:none;stroke-opacity:1" />
    </clipPath>
    <clipPath
       clipPathUnits="userSpaceOnUse"
       id="clipPath4690">
      <rect
         y="872.36218"
         x="0"
         height="180"
         width="320"
         id="rect4692"
         style="opacity:1;fill:#000000;fill-opacity:1;stroke:none;stroke-width:1;stroke-linecap:butt;stroke-linejoin:miter;stroke-miterlimit:4;stroke-dasharray:none;stroke-opacity:1" />
    </clipPath>
    <clipPath
       clipPathUnits="userSpaceOnUse"
       id="clipPath4694">
      <rect
         y="872.36218"
         x="0"
         height="180"
         width="320"
         id="rect4696"
         style="opacity:1;fill:#000000;fill-opacity:1;stroke:none;stroke-width:1;stroke-linecap:butt;stroke-linejoin:miter;stroke-miterlimit:4;stroke-dasharray:none;stroke-opacity:1" />
    </clipPath>
    <clipPath
       clipPathUnits="userSpaceOnUse"
       id="clipPath4698">
      <rect
         y="872.36218"
         x="0"
         height="180"
         width="320"
         id="rect4700"
         style="opacity:1;fill:#000000;fill-opacity:1;stroke:none;stroke-width:1;stroke-linecap:butt;stroke-linejoin:miter;stroke-miterlimit:4;stroke-dasharray:none;stroke-opacity:1" />
    </clipPath>
    <clipPath
       clipPathUnits="userSpaceOnUse"
       id="clipPath4702">
      <rect
         y="872.36218"
         x="0"
         height="180"
         width="320"
         id="rect4704"
         style="opacity:1;fill:#000000;fill-opacity:1;stroke:none;stroke-width:1;stroke-linecap:butt;stroke-linejoin:miter;stroke-miterlimit:4;stroke-dasharray:none;stroke-opacity:1" />
    </clipPath>
    <clipPath
       clipPathUnits="userSpaceOnUse"
       id="clipPath4706">
      <rect
         y="872.36218"
         x="0"
         height="180"
         width="320"
         id="rect4708"
         style="opacity:1;fill:#000000;fill-opacity:1;stroke:none;stroke-width:1;stroke-linecap:butt;stroke-linejoin:miter;stroke-miterlimit:4;stroke-dasharray:none;stroke-opacity:1" />
    </clipPath>
    <clipPath
       clipPathUnits="userSpaceOnUse"
       id="clipPath4710">
      <rect
         y="872.36218"
         x="0"
         height="180"
         width="320"
         id="rect4712"
         style="opacity:1;fill:#000000;fill-opacity:1;stroke:none;stroke-width:1;stroke-linecap:butt;stroke-linejoin:miter;stroke-miterlimit:4;stroke-dasharray:none;stroke-opacity:1" />
    </clipPath>
  </defs>
  <sodipodi:namedview
     id="base"
     pagecolor="#ffffff"
     bordercolor="#666666"
     borderopacity="1.0"
     inkscape:pageopacity="0.0"
     inkscape:pageshadow="2"
     inkscape:zoom="1.979899"
     inkscape:cx="140.81373"
     inkscape:cy="157.07482"
     inkscape:document-units="px"
     inkscape:current-layer="layer1"
     showgrid="false"
     units="px"
     inkscape:window-width="1920"
     inkscape:window-height="1043"
     inkscape:window-x="0"
     inkscape:window-y="18"
     inkscape:window-maximized="0" />
  <metadata
     id="metadata7">
    <rdf:RDF>
      <cc:Work
         rdf:about="">
        <dc:format>image/svg+xml</dc:format>
        <dc:type
           rdf:resource="http://purl.org/dc/dcmitype/StillImage" />
        <dc:title></dc:title>
        <dc:creator>
          <cc:Agent>
            <dc:title>Ben N</dc:title>
          </cc:Agent>
        </dc:creator>
      </cc:Work>
    </rdf:RDF>
  </metadata>
  <g
     inkscape:label="Layer 1"
     inkscape:groupmode="layer"
     id="layer1"
     transform="translate(0,-872.3622)">
    <rect
       style="opacity:1;fill:#000000;fill-opacity:1;stroke:none;stroke-width:1;stroke-linecap:butt;stroke-linejoin:miter;stroke-miterlimit:4;stroke-dasharray:none;stroke-opacity:1"
       id="rect4144"
       width="320"
       height="180"
       x="0"
       y="872.36218" />
    <path
       style="opacity:1;fill:#00ccff;fill-opacity:1;stroke:none;stroke-width:1;stroke-linecap:butt;stroke-linejoin:miter;stroke-miterlimit:4;stroke-dasharray:none;stroke-opacity:1;filter:url(#filter4406)"
       d="m 95.013672,880.05078 c -6.607598,1.02531 -6.531167,9.358 -7.617188,14.50195 0.276386,4.53339 0.07095,8.94226 -2.378906,12.84571 -1.676311,9.74116 -2.083697,20.12154 0.664063,29.72656 1.228635,3.1012 2.766435,8.102 5.590924,8.62461 3.682491,-2.63065 5.251505,4.7375 9.358295,3.65469 4.34377,-1.29971 2.11299,3.81143 2.70854,6.46014 0.72383,17.80466 -0.13421,35.80605 0.0102,53.46566 0.85558,1.5753 2.7937,2.4504 0.32617,3.4121 -3.837674,3.0757 0.20284,7.4521 -1.36133,11.1348 -1.54487,11.4073 -2.814006,23.5814 -7.56445,34.0468 -4.345832,3.6306 0.555217,10.5602 5.5731,8.8395 40.67337,-1.8827 81.32308,-4.2367 121.99331,-6.1832 -0.13556,-34.8103 -0.59418,-69.86737 5.07421,-104.20315 2.45333,-4.2246 0.12478,-9.46319 1.4004,-14.04492 1.16707,-14.78776 4.16625,-30.67669 -1.62696,-44.83203 -5.36268,-5.62438 -13.34135,-0.65177 -19.84676,-1.9148 -37.88389,1.18025 -76.79051,-0.96379 -112.153238,-15.53637 l -0.15039,0.002 z m 4.859375,179.07812 c 1.125303,0.2863 -1.294229,2.0444 0,0 z"
       id="path4377"
       inkscape:connector-curvature="0"
       clip-path="url(#clipPath4710)" />
    <path
       style="opacity:1;fill:#aa8800;fill-opacity:1;stroke:#aa8800;stroke-width:1;stroke-linecap:butt;stroke-linejoin:miter;stroke-miterlimit:4;stroke-dasharray:none;stroke-opacity:1"
       d="m 95.459416,886.57091 c -5.221202,8.35982 -0.287537,57.11479 5.050764,56.69481 l 9.84899,0.75762 -6.31346,-52.90674 z"
       id="path4154"
       inkscape:connector-curvature="0"
       sodipodi:nodetypes="ccccc"
       clip-path="url(#clipPath4706)" />
    <path
       style="opacity:1;fill:#aa8800;fill-opacity:1;stroke:#aa8800;stroke-width:1;stroke-linecap:butt;stroke-linejoin:miter;stroke-miterlimit:4;stroke-dasharray:none;stroke-opacity:1"
       d="m 91.166267,907.65785 c -2.953738,12.44302 -0.975927,27.94451 1.894036,31.69353 l 16.793787,0.12627 -1.76776,-30.68338 z"
       id="path4152"
       inkscape:connector-curvature="0"
       sodipodi:nodetypes="ccccc"
       clip-path="url(#clipPath4702)" />
    <path
       style="opacity:1;fill:#ffcc00;fill-opacity:1;stroke:#aa8800;stroke-width:1;stroke-linecap:butt;stroke-linejoin:miter;stroke-miterlimit:4;stroke-dasharray:none;stroke-opacity:1"
       d="m 92.302689,919.52714 c 2.22434,7.78784 0.09099,14.27266 1.010153,19.82424 0,0 10.227788,0.63135 10.227788,-0.50507 0,-1.13642 -0.25253,-19.95051 -0.25253,-19.95051 z"
       id="path4150"
       inkscape:connector-curvature="0"
       sodipodi:nodetypes="ccscc"
       clip-path="url(#clipPath4698)" />
    <path
       style="opacity:1;fill:#ffcc00;fill-opacity:1;stroke:#aa8800;stroke-width:1;stroke-linecap:butt;stroke-linejoin:miter;stroke-miterlimit:4;stroke-dasharray:none;stroke-opacity:1"
       d="m 91.671344,907.53158 c 8.131623,-1.3426 14.098046,19.86642 9.470176,35.60788 l 7.32361,0.12626 c 3.11908,-11.10005 -0.0263,-23.76621 -2.39911,-36.23922 0,0 -10.732873,0.63135 -14.394676,0.50508 z"
       id="path4148"
       inkscape:connector-curvature="0"
       sodipodi:nodetypes="ccccc"
       clip-path="url(#clipPath4694)" />
    <path
       style="opacity:1;fill:#ffcc00;fill-opacity:1;stroke:#aa8800;stroke-width:1;stroke-linecap:butt;stroke-linejoin:miter;stroke-miterlimit:4;stroke-dasharray:none;stroke-opacity:1"
       d="m 95.585685,886.82345 c 23.852615,9.96258 67.600805,18.16678 126.647875,14.01587 4.74797,10.12358 0.71033,33.91366 0,52.52793 -1.68732,1.48858 -3.82838,2.29656 -6.18719,2.77792 1.53844,1.03044 2.95893,2.18768 4.67196,3.03046 -4.47129,31.77028 -4.68282,64.40027 -4.44108,95.69927 0,0 -116.498453,5.8452 -115.51453,6.0736 1.31574,0.3056 9.84799,-41.9223 7.82868,-43.9416 2.18866,-0.7007 4.37732,-1.6954 6.56599,-5.0508 -2.26696,-0.7694 -4.45839,-2.9525 -6.06091,-5.0508 1.47491,-40.66616 0.79067,-117.13475 -13.510795,-120.08185 z"
       id="path4146"
       inkscape:connector-curvature="0"
       sodipodi:nodetypes="ccccccscccc"
       clip-path="url(#clipPath4690)" />
    <path
       style="opacity:1;fill:#0088aa;fill-opacity:1;stroke:#006680;stroke-width:1;stroke-linecap:butt;stroke-linejoin:miter;stroke-miterlimit:4;stroke-dasharray:none;stroke-opacity:1"
       d="M 112.84375 20.302734 C 130.74709 65.535463 129.33421 156.03113 120.96484 183.78906 L 202.53516 181.76758 C 202.53516 181.76758 199.33831 151.11136 205.31445 112.82422 C 210.00139 82.79656 211.19365 40.678532 209.08398 29.205078 C 168.3671 30.884666 135.7214 26.612959 112.84375 20.302734 z "
       transform="translate(0,872.3622)"
       id="path4156"
       clip-path="url(#clipPath4686)" />
    <g
       id="g4365"
       clip-path="url(#clipPath4682)">
      <path
         d="m 143.75136,940.99286 c 0.91,0.07 1.365,0.105 1.925,0.105 1.505,0 2.45,-0.21 3.36,-0.77 1.715,-1.05 3.465,-3.5 4.585,-6.475 0.56,-1.47 0.77,-2.24 2.275,-8.33 0.875,3.78 0.875,3.815 1.26,5.425 0.98,4.025 1.96,7.035 3.08,9.275 2.135,4.34 5.215,6.475 9.345,6.475 1.785,0 3.045,-0.315 4.62,-1.225 l -0.84,-3.115 c -1.05,2.45 -2.03,3.395 -3.57,3.395 -2.205,0 -4.235,-1.715 -6.02,-5.11 0.595,-3.01 0.875,-4.375 1.785,-8.05 1.505,-6.09 2.275,-8.61 3.395,-10.92 0.735,-1.505 1.575,-2.03 3.185,-2.03 0.28,0 0.49,0 0.945,0.07 l 1.295,-2.345 c -0.42,-0.035 -0.805,-0.07 -1.085,-0.07 -1.47,0 -3.045,1.015 -4.865,3.15 -1.68,1.96 -2.31,3.71 -4.025,11.305 -0.35,1.645 -0.735,3.29 -1.12,4.97 -0.035,0.175 -0.21,0.91 -0.525,1.995 -1.505,-2.905 -2.345,-5.46 -5.215,-16.31 l -0.63,-2.275 -1.19,1.085 c -0.84,-0.07 -1.26,-0.105 -1.925,-0.105 -2.135,0 -3.36,0.385 -4.655,1.365 -2.205,1.75 -3.745,4.27 -3.745,6.195 0,0.91 0.245,1.785 0.875,3.08 l 2.415,-1.645 c -0.875,-1.89 -1.12,-2.625 -1.12,-3.535 0,-1.05 0.595,-1.995 1.575,-2.52 0.84,-0.455 1.645,-0.595 3.29,-0.595 0.875,0 1.435,0 2.66,0.07 -1.61,7.035 -2.975,11.445 -4.13,13.51 -0.735,1.295 -1.505,1.68 -3.36,1.68 -0.735,0 -1.19,-0.035 -2.17,-0.14 l -1.68,2.415 z"
         style="font-style:italic;font-variant:normal;font-weight:500;font-stretch:normal;font-size:35px;line-height:125%;font-family:Z003;-inkscape-font-specification:'Z003 Medium Italic';text-align:center;writing-mode:lr-tb;text-anchor:middle;fill:#ffffff;fill-opacity:1;stroke:none;stroke-width:1;stroke-linecap:butt;stroke-linejoin:miter;stroke-miterlimit:4;stroke-dasharray:none;stroke-opacity:1"
         id="path4190"
         inkscape:connector-curvature="0" />
      <path
         d="m 183.3905,920.30786 c -2.905,0 -6.615,1.47 -9.03,3.535 -2.8,2.485 -4.375,6.335 -4.375,10.745 0,4.48 2.065,6.86 5.95,6.86 3.22,0 6.65,-1.505 9.31,-4.025 2.555,-2.45 3.92,-6.055 3.92,-10.325 0,-4.41 -2.03,-6.79 -5.775,-6.79 z m -1.995,1.365 c 3.08,0 4.9,2.415 4.9,6.51 0,2.695 -0.7,5.635 -1.855,7.665 -1.505,2.66 -3.885,4.2 -6.475,4.2 -3.22,0 -5.11,-2.52 -5.11,-6.825 0,-6.51 3.71,-11.55 8.54,-11.55 z"
         style="font-style:italic;font-variant:normal;font-weight:500;font-stretch:normal;font-size:35px;line-height:125%;font-family:Z003;-inkscape-font-specification:'Z003 Medium Italic';text-align:center;writing-mode:lr-tb;text-anchor:middle;fill:#ffffff;fill-opacity:1;stroke:none;stroke-width:1;stroke-linecap:butt;stroke-linejoin:miter;stroke-miterlimit:4;stroke-dasharray:none;stroke-opacity:1"
         id="path4192"
         inkscape:connector-curvature="0" />
      <path
         d="m 142.73336,965.87786 c 0.805,-0.385 1.05,-0.525 1.575,-0.945 -1.645,-0.21 -2.45,-0.245 -3.57,-0.245 -2.73,0 -4.445,0.525 -6.16,1.82 -1.925,1.47 -3.045,3.535 -3.045,5.635 0,0.945 0.14,1.575 0.63,2.695 l 2.66,-1.47 c -0.455,-1.155 -0.595,-1.82 -0.595,-2.8 0,-2.695 1.785,-4.62 4.27,-4.62 0.385,0 0.91,0.035 1.505,0.105 -0.91,7.07 -2.275,16.31 -2.835,19.11 0.98,-0.175 1.12,-0.21 2.59,-0.56 1.26,-1.435 1.505,-1.645 3.78,-4.06 5.46,-5.6 8.26,-8.68 9.73,-10.64 1.96,-2.695 2.94,-4.97 2.94,-6.895 0,-0.63 -0.07,-0.98 -0.315,-1.645 -0.7,-0.42 -0.98,-0.525 -1.82,-0.595 -0.945,0.42 -1.33,0.7 -2.135,1.4 0.91,0.77 1.225,1.435 1.225,2.625 0,1.89 -1.155,4.48 -3.185,7.105 -1.89,2.45 -3.255,3.885 -9.59,10.045 l 2.345,-16.065 z"
         style="font-style:italic;font-variant:normal;font-weight:500;font-stretch:normal;font-size:35px;line-height:125%;font-family:Z003;-inkscape-font-specification:'Z003 Medium Italic';text-align:center;writing-mode:lr-tb;text-anchor:middle;fill:#ffffff;fill-opacity:1;stroke:none;stroke-width:1;stroke-linecap:butt;stroke-linejoin:miter;stroke-miterlimit:4;stroke-dasharray:none;stroke-opacity:1"
         id="path4194"
         inkscape:connector-curvature="0" />
      <path
         d="m 164.07898,973.99786 1.995,-7.945 1.085,0 c 1.4,-0.035 2.52,-0.07 2.73,-0.07 1.435,0 1.61,0.21 2.59,2.485 l 2.31,-2.275 c -0.14,-0.77 -0.385,-1.12 -0.98,-1.365 l -7.49,0.14 0.21,-0.735 -2.45,0.735 c -3.36,0.035 -5.495,0.7 -7.49,2.275 -1.75,1.365 -2.52,2.8 -2.52,4.62 0,0.91 0.14,1.61 0.63,2.835 l 2.52,-1.68 c -0.315,-1.155 -0.455,-1.995 -0.455,-2.905 0,-2.73 1.925,-3.85 6.72,-3.99 l -1.96,7.875 c -0.595,0.595 -0.77,0.805 -1.365,1.505 l 0.98,0 c -1.82,7.105 -1.89,7.28 -4.97,8.085 l -1.33,1.155 1.155,0.035 2.065,0 c 3.08,0.035 3.36,0.035 4.69,0.105 4.165,0.14 4.165,0.14 5.775,0.14 1.82,0 2.31,-0.21 3.885,-1.61 1.61,-1.47 2.205,-2.31 2.205,-3.115 0,-0.175 -0.07,-0.455 -0.14,-0.805 l -2.66,0.98 c 0.105,0.735 0.14,0.98 0.14,1.33 0,1.33 -0.455,1.505 -3.815,1.505 l -9.1,0 c 3.395,-3.115 3.43,-3.185 4.69,-7.98 1.785,-0.105 1.995,-0.105 2.835,-0.175 0.77,-0.035 1.295,-0.07 1.505,-0.07 0.14,-0.035 0.525,-0.035 0.945,-0.07 0.595,-0.455 0.7,-0.525 1.33,-1.015 l -6.265,0 z"
         style="font-style:italic;font-variant:normal;font-weight:500;font-stretch:normal;font-size:35px;line-height:125%;font-family:Z003;-inkscape-font-specification:'Z003 Medium Italic';text-align:center;writing-mode:lr-tb;text-anchor:middle;fill:#ffffff;fill-opacity:1;stroke:none;stroke-width:1;stroke-linecap:butt;stroke-linejoin:miter;stroke-miterlimit:4;stroke-dasharray:none;stroke-opacity:1"
         id="path4196"
         inkscape:connector-curvature="0" />
      <path
         d="m 174.4089,984.70786 c 1.855,0.035 1.855,0.035 2.065,0.035 1.82,0 4.97,-0.07 6.02,-0.14 l 2.59,-1.33 c -0.77,-0.035 -1.505,-0.035 -1.505,-0.035 l -2.03,-0.035 -1.085,-0.035 c 3.955,-3.955 4.165,-4.27 5.285,-8.75 0.49,0 0.665,0.21 0.875,1.19 1.505,6.3 2.485,9.135 3.92,11.27 1.505,2.24 3.57,3.325 6.335,3.325 1.96,0 3.15,-0.42 5.11,-1.855 l -1.715,-2.135 c -1.12,2.065 -2.1,2.87 -3.465,2.87 -1.68,0 -3.185,-1.715 -4.655,-5.215 -0.91,-2.205 -1.855,-4.97 -3.43,-9.975 1.995,-0.63 2.8,-1.015 3.885,-1.75 1.645,-1.085 2.59,-2.695 2.59,-4.34 0,-2.205 -1.715,-3.395 -4.935,-3.395 -0.42,0 -1.295,0.035 -2.03,0.07 l 0.28,-1.12 -3.185,1.505 c -5.74,0.945 -8.785,3.64 -8.785,7.735 0,0.91 0.105,1.505 0.49,2.8 l 2.94,-1.505 c -0.315,-1.19 -0.385,-1.75 -0.385,-2.59 0,-1.68 0.525,-3.01 1.61,-4.025 0.98,-0.875 1.96,-1.26 4.2,-1.54 l -0.525,2.1 c -0.735,2.905 -1.435,5.6 -2.135,8.54 -1.47,5.915 -2.415,6.825 -6.965,6.79 l -1.365,1.54 z m 13.58,-19.25 1.12,0 c 2.135,0 3.045,0.805 3.045,2.73 0,1.785 -0.945,3.43 -2.415,4.34 -1.05,0.63 -1.89,0.875 -3.78,1.085 l 2.03,-8.155 z"
         style="font-style:italic;font-variant:normal;font-weight:500;font-stretch:normal;font-size:35px;line-height:125%;font-family:Z003;-inkscape-font-specification:'Z003 Medium Italic';text-align:center;writing-mode:lr-tb;text-anchor:middle;fill:#ffffff;fill-opacity:1;stroke:none;stroke-width:1;stroke-linecap:butt;stroke-linejoin:miter;stroke-miterlimit:4;stroke-dasharray:none;stroke-opacity:1"
         id="path4198"
         inkscape:connector-curvature="0" />
      <path
         d="m 133.0534,1028.4929 2.205,0 3.815,-0.035 4.025,0.035 1.435,0 0.84,-0.945 c -1.05,-0.035 -2.94,-0.245 -3.605,-0.385 -0.56,-0.14 -0.91,-0.525 -0.91,-1.05 0,-0.385 0.07,-0.91 0.21,-1.47 0.14,-0.455 0.49,-2.065 1.015,-4.48 1.435,-6.37 2.275,-9.905 2.87,-12.04 -0.91,0.49 -1.995,1.05 -3.605,1.89 -0.91,0.455 -1.61,0.77 -4.62,2.135 l 1.05,0.525 c 0.805,-0.28 1.085,-0.385 1.89,-0.7 l 1.05,-0.42 c 0.14,-0.07 0.455,-0.175 0.98,-0.35 l -3.325,14.315 c -0.245,1.015 -0.315,1.225 -0.56,1.4 -0.315,0.21 -0.315,0.21 -1.925,0.385 l -1.085,0.14 c -0.105,0 -0.35,0.035 -0.735,0.105 l -1.015,0.945 z"
         style="font-style:italic;font-variant:normal;font-weight:500;font-stretch:normal;font-size:35px;line-height:125%;font-family:Z003;-inkscape-font-specification:'Z003 Medium Italic';text-align:center;writing-mode:lr-tb;text-anchor:middle;fill:#ffffff;fill-opacity:1;stroke:none;stroke-width:1;stroke-linecap:butt;stroke-linejoin:miter;stroke-miterlimit:4;stroke-dasharray:none;stroke-opacity:1"
         id="path4200"
         inkscape:connector-curvature="0" />
      <path
         d="m 149.30925,1026.1129 c 0.28,0.77 0.98,1.89 1.645,2.695 1.33,-0.98 1.645,-1.225 2.59,-2.205 -0.42,-0.595 -0.77,-1.155 -0.805,-1.19 -0.245,-0.385 -0.42,-0.665 -0.84,-1.4 -0.105,0.105 -0.28,0.245 -0.49,0.42 -0.28,0.21 -0.56,0.455 -0.84,0.7 -0.245,0.175 -0.455,0.35 -1.26,0.98 z"
         style="font-style:italic;font-variant:normal;font-weight:500;font-stretch:normal;font-size:35px;line-height:125%;font-family:Z003;-inkscape-font-specification:'Z003 Medium Italic';text-align:center;writing-mode:lr-tb;text-anchor:middle;fill:#ffffff;fill-opacity:1;stroke:none;stroke-width:1;stroke-linecap:butt;stroke-linejoin:miter;stroke-miterlimit:4;stroke-dasharray:none;stroke-opacity:1"
         id="path4202"
         inkscape:connector-curvature="0" />
      <path
         d="m 166.58886,1008.3329 c -2.52,0 -5.355,1.75 -7.07,4.34 -1.68,2.52 -2.94,7 -2.94,10.325 0,3.78 1.365,5.74 4.06,5.74 3.01,0 5.705,-1.855 7.35,-5.005 1.4,-2.695 2.415,-6.825 2.415,-9.8 0,-3.71 -1.295,-5.6 -3.815,-5.6 z m -1.715,1.47 c 1.61,0 2.485,1.855 2.485,5.18 0,2.835 -0.735,6.44 -1.855,9.135 -0.875,2.17 -1.995,3.325 -3.22,3.325 -1.54,0 -2.66,-1.995 -2.66,-4.795 0,-1.925 0.665,-5.845 1.365,-8.12 0.945,-3.15 2.24,-4.725 3.885,-4.725 z"
         style="font-style:italic;font-variant:normal;font-weight:500;font-stretch:normal;font-size:35px;line-height:125%;font-family:Z003;-inkscape-font-specification:'Z003 Medium Italic';text-align:center;writing-mode:lr-tb;text-anchor:middle;fill:#ffffff;fill-opacity:1;stroke:none;stroke-width:1;stroke-linecap:butt;stroke-linejoin:miter;stroke-miterlimit:4;stroke-dasharray:none;stroke-opacity:1"
         id="path4204"
         inkscape:connector-curvature="0" />
      <path
         d="m 172.41472,1026.1129 c 0.28,0.77 0.98,1.89 1.645,2.695 1.33,-0.98 1.645,-1.225 2.59,-2.205 -0.42,-0.595 -0.77,-1.155 -0.805,-1.19 -0.245,-0.385 -0.42,-0.665 -0.84,-1.4 -0.105,0.105 -0.28,0.245 -0.49,0.42 -0.28,0.21 -0.56,0.455 -0.84,0.7 -0.245,0.175 -0.455,0.35 -1.26,0.98 z"
         style="font-style:italic;font-variant:normal;font-weight:500;font-stretch:normal;font-size:35px;line-height:125%;font-family:Z003;-inkscape-font-specification:'Z003 Medium Italic';text-align:center;writing-mode:lr-tb;text-anchor:middle;fill:#ffffff;fill-opacity:1;stroke:none;stroke-width:1;stroke-linecap:butt;stroke-linejoin:miter;stroke-miterlimit:4;stroke-dasharray:none;stroke-opacity:1"
         id="path4206"
         inkscape:connector-curvature="0" />
      <path
         d="m 189.69433,1008.3329 c -2.52,0 -5.355,1.75 -7.07,4.34 -1.68,2.52 -2.94,7 -2.94,10.325 0,3.78 1.365,5.74 4.06,5.74 3.01,0 5.705,-1.855 7.35,-5.005 1.4,-2.695 2.415,-6.825 2.415,-9.8 0,-3.71 -1.295,-5.6 -3.815,-5.6 z m -1.715,1.47 c 1.61,0 2.485,1.855 2.485,5.18 0,2.835 -0.735,6.44 -1.855,9.135 -0.875,2.17 -1.995,3.325 -3.22,3.325 -1.54,0 -2.66,-1.995 -2.66,-4.795 0,-1.925 0.665,-5.845 1.365,-8.12 0.945,-3.15 2.24,-4.725 3.885,-4.725 z"
         style="font-style:italic;font-variant:normal;font-weight:500;font-stretch:normal;font-size:35px;line-height:125%;font-family:Z003;-inkscape-font-specification:'Z003 Medium Italic';text-align:center;writing-mode:lr-tb;text-anchor:middle;fill:#ffffff;fill-opacity:1;stroke:none;stroke-width:1;stroke-linecap:butt;stroke-linejoin:miter;stroke-miterlimit:4;stroke-dasharray:none;stroke-opacity:1"
         id="path4208"
         inkscape:connector-curvature="0" />
    </g>
  </g>
</svg>
