<?xml version="1.0" encoding="UTF-8" standalone="no"?>
<!-- Created with Inkscape (http://www.inkscape.org/) -->

<svg
   xmlns:dc="http://purl.org/dc/elements/1.1/"
   xmlns:cc="http://creativecommons.org/ns#"
   xmlns:rdf="http://www.w3.org/1999/02/22-rdf-syntax-ns#"
   xmlns:svg="http://www.w3.org/2000/svg"
   xmlns="http://www.w3.org/2000/svg"
   xmlns:sodipodi="http://sodipodi.sourceforge.net/DTD/sodipodi-0.dtd"
   xmlns:inkscape="http://www.inkscape.org/namespaces/inkscape"
   width="400"
   height="400"
   viewBox="0 0 400.00001 400.00001"
   id="svg2"
   version="1.1"
   inkscape:version="0.91 r13725"
   sodipodi:docname="transaction-non-repeatable-read.svg">
  <defs
     id="defs4">
    <marker
       inkscape:stockid="Arrow1Lend"
       orient="auto"
       refY="0.0"
       refX="0.0"
       id="Arrow1Lend"
       style="overflow:visible;"
       inkscape:isstock="true">
      <path
         id="path4431"
         d="M 0.0,0.0 L 5.0,-5.0 L -12.5,0.0 L 5.0,5.0 L 0.0,0.0 z "
         style="fill-rule:evenodd;stroke:#000000;stroke-width:1.0pt;"
         transform="scale(0.8) rotate(180) translate(12.5,0)" />
    </marker>
    <marker
       inkscape:isstock="true"
       style="overflow:visible;"
       id="marker4828"
       refX="0.0"
       refY="0.0"
       orient="auto"
       inkscape:stockid="Arrow1Lend">
      <path
         transform="scale(0.8) rotate(180) translate(12.5,0)"
         style="fill-rule:evenodd;stroke:#000000;stroke-width:1pt;stroke-opacity:1;fill:#000000;fill-opacity:1"
         d="M 0.0,0.0 L 5.0,-5.0 L -12.5,0.0 L 5.0,5.0 L 0.0,0.0 z "
         id="path4830" />
    </marker>
    <marker
       inkscape:stockid="Arrow1Lend"
       orient="auto"
       refY="0.0"
       refX="0.0"
       id="marker4762"
       style="overflow:visible;"
       inkscape:isstock="true"
       inkscape:collect="always">
      <path
         id="path4764"
         d="M 0.0,0.0 L 5.0,-5.0 L -12.5,0.0 L 5.0,5.0 L 0.0,0.0 z "
         style="fill-rule:evenodd;stroke:#000000;stroke-width:1pt;stroke-opacity:1;fill:#000000;fill-opacity:1"
         transform="scale(0.8) rotate(180) translate(12.5,0)" />
    </marker>
    <marker
       inkscape:isstock="true"
       style="overflow:visible;"
       id="marker4710"
       refX="0.0"
       refY="0.0"
       orient="auto"
       inkscape:stockid="Arrow1Lend"
       inkscape:collect="always">
      <path
         transform="scale(0.8) rotate(180) translate(12.5,0)"
         style="fill-rule:evenodd;stroke:#008000;stroke-width:1pt;stroke-opacity:1;fill:#008000;fill-opacity:1"
         d="M 0.0,0.0 L 5.0,-5.0 L -12.5,0.0 L 5.0,5.0 L 0.0,0.0 z "
         id="path4712" />
    </marker>
    <marker
       inkscape:isstock="true"
       style="overflow:visible"
       id="marker4828-9"
       refX="0"
       refY="0"
       orient="auto"
       inkscape:stockid="Arrow1Lend">
      <path
         inkscape:connector-curvature="0"
         transform="matrix(-0.8,0,0,-0.8,-10,0)"
         style="fill:#000000;fill-opacity:1;fill-rule:evenodd;stroke:#000000;stroke-width:1pt;stroke-opacity:1"
         d="M 0,0 5,-5 -12.5,0 5,5 0,0 Z"
         id="path4830-5" />
    </marker>
  </defs>
  <sodipodi:namedview
     id="base"
     pagecolor="#ffffff"
     bordercolor="#666666"
     borderopacity="1.0"
     inkscape:pageopacity="0.0"
     inkscape:pageshadow="2"
     inkscape:zoom="1.979899"
     inkscape:cx="158.44413"
     inkscape:cy="255.06815"
     inkscape:document-units="px"
     inkscape:current-layer="layer1"
     showgrid="true"
     units="px"
     inkscape:window-width="1920"
     inkscape:window-height="1043"
     inkscape:window-x="0"
     inkscape:window-y="18"
     inkscape:window-maximized="0"
     inkscape:object-nodes="true"
     inkscape:snap-smooth-nodes="true"
     inkscape:snap-object-midpoints="true"
     inkscape:snap-nodes="true"
     inkscape:snap-others="true"
     inkscape:object-paths="true">
    <inkscape:grid
       type="xygrid"
       id="grid4133"
       spacingx="25.000001"
       spacingy="25.000001"
       empspacing="4" />
  </sodipodi:namedview>
  <metadata
     id="metadata7">
    <rdf:RDF>
      <cc:Work
         rdf:about="">
        <dc:format>image/svg+xml</dc:format>
        <dc:type
           rdf:resource="http://purl.org/dc/dcmitype/StillImage" />
        <dc:title></dc:title>
        <dc:creator>
          <cc:Agent>
            <dc:title>Ben N</dc:title>
          </cc:Agent>
        </dc:creator>
      </cc:Work>
    </rdf:RDF>
  </metadata>
  <g
     inkscape:label="Layer 1"
     inkscape:groupmode="layer"
     id="layer1"
     transform="translate(0,-652.36216)">
    <text
       xml:space="preserve"
       style="font-style:normal;font-variant:normal;font-weight:normal;font-stretch:normal;font-size:15px;line-height:125%;font-family:sans-serif;-inkscape-font-specification:sans-serif;text-align:start;writing-mode:lr-tb;text-anchor:start;opacity:1;fill:#000000;fill-opacity:1;stroke:none;stroke-width:1;stroke-linecap:round;stroke-linejoin:round;stroke-miterlimit:4;stroke-dasharray:none;stroke-opacity:1;"
       x="50"
       y="677.36218"
       id="text4396"
       sodipodi:linespacing="125%"><tspan
         sodipodi:role="line"
         id="tspan4398"
         x="50"
         y="677.36218">transaction 1</tspan></text>
    <text
       xml:space="preserve"
       style="font-style:normal;font-variant:normal;font-weight:normal;font-stretch:normal;font-size:15px;line-height:125%;font-family:sans-serif;-inkscape-font-specification:sans-serif;text-align:start;writing-mode:lr-tb;text-anchor:start;opacity:1;fill:#000000;fill-opacity:1;stroke:none;stroke-width:1;stroke-linecap:round;stroke-linejoin:round;stroke-miterlimit:4;stroke-dasharray:none;stroke-opacity:1;"
       x="275"
       y="677.36218"
       id="text4404"
       sodipodi:linespacing="125%"><tspan
         sodipodi:role="line"
         id="tspan4406"
         x="275"
         y="677.36218">transaction 2</tspan></text>
    <path
       style="opacity:1;fill:#000000;fill-opacity:1;stroke:#000000;stroke-width:1;stroke-linecap:round;stroke-linejoin:round;stroke-miterlimit:4;stroke-dasharray:none;stroke-opacity:1"
       d="m 25,652.36215 0,400.00005"
       id="path4408"
       inkscape:connector-curvature="0" />
    <path
       style="opacity:1;fill:#000000;fill-opacity:1;stroke:#000000;stroke-width:1;stroke-linecap:round;stroke-linejoin:round;stroke-miterlimit:4;stroke-dasharray:none;stroke-opacity:1"
       d="m 375.00001,652.36215 0,400.00005"
       id="path4410"
       inkscape:connector-curvature="0" />
    <rect
       style="opacity:1;fill:none;fill-opacity:1;stroke:#000000;stroke-width:1;stroke-linecap:round;stroke-linejoin:round;stroke-miterlimit:4;stroke-dasharray:none;stroke-opacity:1"
       id="rect4412"
       width="100"
       height="50"
       x="150"
       y="702.36218" />
    <rect
       style="opacity:1;fill:none;fill-opacity:1;stroke:#000000;stroke-width:1;stroke-linecap:round;stroke-linejoin:round;stroke-miterlimit:4;stroke-dasharray:none;stroke-opacity:1"
       id="rect4414"
       width="100"
       height="50"
       x="150"
       y="777.36218" />
    <path
       style="opacity:1;fill:none;fill-opacity:1;stroke:#000000;stroke-width:1;stroke-linecap:round;stroke-linejoin:round;stroke-miterlimit:4;stroke-dasharray:none;stroke-opacity:1;marker-end:url(#marker4762)"
       d="m 150,727.36216 -125,0"
       id="path4418"
       inkscape:connector-curvature="0" />
    <path
       style="opacity:1;fill:#008000;fill-opacity:1;stroke:#008000;stroke-width:1;stroke-linecap:round;stroke-linejoin:round;stroke-miterlimit:4;stroke-dasharray:none;stroke-opacity:1;marker-end:url(#marker4710)"
       d="m 25,802.36216 125,0"
       id="path4420"
       inkscape:connector-curvature="0" />
    <g
       style="font-style:normal;font-variant:normal;font-weight:normal;font-stretch:normal;font-size:15px;line-height:125%;font-family:sans-serif;-inkscape-font-specification:sans-serif;text-align:start;writing-mode:lr-tb;text-anchor:start;opacity:1;fill:#000000;fill-opacity:1;stroke:none;stroke-width:1;stroke-linecap:round;stroke-linejoin:round;stroke-miterlimit:4;stroke-dasharray:none;stroke-opacity:1"
       id="text4796">
      <path
         id="path4891"
         d="m 211.07788,732.66489 -1.31835,0 0,-8.40088 q -0.47608,0.45411 -1.25245,0.90821 -0.76904,0.4541 -1.38427,0.68115 l 0,-1.27441 q 1.10595,-0.52002 1.93359,-1.25977 0.82764,-0.73975 1.17188,-1.43555 l 0.8496,0 0,10.78125 z m -6.42334,-6.31347 -7.08984,0 0,-1.23047 7.08984,0 0,1.23047 z m 0,3.25927 -7.08984,0 0,-1.23046 7.08984,0 0,1.23046 z m -10.20996,2.09473 q -0.73242,0.62256 -1.41357,0.87891 -0.67383,0.25634 -1.4502,0.25634 -1.28173,0 -1.97021,-0.62255 -0.68848,-0.62989 -0.68848,-1.60401 0,-0.57129 0.25635,-1.04004 0.26367,-0.47607 0.68115,-0.76172 0.42481,-0.28564 0.95215,-0.43212 0.38819,-0.10254 1.17188,-0.19776 1.59668,-0.19043 2.35107,-0.4541 0.007,-0.271 0.007,-0.34424 0,-0.80566 -0.37353,-1.13525 -0.50537,-0.44678 -1.50147,-0.44678 -0.93017,0 -1.37695,0.32959 -0.43945,0.32227 -0.65185,1.1499 l -1.28907,-0.17578 q 0.17579,-0.82764 0.57862,-1.33301 0.40283,-0.51269 1.16455,-0.78369 0.76172,-0.27832 1.76513,-0.27832 0.9961,0 1.61866,0.23438 0.62256,0.23437 0.91552,0.59326 0.29297,0.35156 0.41016,0.89355 0.0659,0.33692 0.0659,1.21582 l 0,1.75782 q 0,1.83838 0.0806,2.3291 0.0879,0.4834 0.33692,0.93017 l -1.37695,0 q -0.20508,-0.41015 -0.26368,-0.95947 z m -0.10986,-2.94433 q -0.71777,0.29296 -2.15332,0.49804 -0.81299,0.11719 -1.1499,0.26367 -0.33692,0.14649 -0.52002,0.43213 -0.18311,0.27832 -0.18311,0.62256 0,0.52735 0.39551,0.87891 0.40283,0.35156 1.17188,0.35156 0.76171,0 1.35498,-0.32959 0.59326,-0.33691 0.87158,-0.91553 0.2124,-0.44677 0.2124,-1.31836 l 0,-0.48339 z"
         inkscape:connector-curvature="0" />
    </g>
    <g
       style="font-style:normal;font-variant:normal;font-weight:normal;font-stretch:normal;font-size:15px;line-height:125%;font-family:sans-serif;-inkscape-font-specification:sans-serif;text-align:start;writing-mode:lr-tb;text-anchor:start;opacity:1;fill:#000000;fill-opacity:1;stroke:none;stroke-width:1;stroke-linecap:round;stroke-linejoin:round;stroke-miterlimit:4;stroke-dasharray:none;stroke-opacity:1"
       id="text4800">
      <path
         id="path4899"
         d="m 212.05933,806.3978 0,1.26709 -7.09716,0 q -0.0146,-0.47607 0.15381,-0.91552 0.27099,-0.7251 0.86425,-1.42823 0.60059,-0.70312 1.72852,-1.62597 1.75049,-1.43555 2.36572,-2.27051 0.61524,-0.84229 0.61524,-1.58936 0,-0.78369 -0.56397,-1.31836 -0.55664,-0.54199 -1.45752,-0.54199 -0.95215,0 -1.52344,0.57129 -0.57129,0.57129 -0.57861,1.58203 l -1.35498,-0.13916 q 0.13916,-1.51611 1.04736,-2.30713 0.90821,-0.79834 2.43897,-0.79834 1.54541,0 2.44629,0.85694 0.90088,0.85693 0.90088,2.12402 0,0.64453 -0.26368,1.26709 -0.26367,0.62256 -0.8789,1.31103 -0.60791,0.68848 -2.02881,1.88965 -1.18652,0.9961 -1.52344,1.35498 -0.33691,0.35157 -0.55664,0.71045 l 5.26611,0 z m -8.38623,-5.04638 -7.08984,0 0,-1.23047 7.08984,0 0,1.23047 z m 0,3.25927 -7.08984,0 0,-1.23047 7.08984,0 0,1.23047 z m -10.20996,2.09473 q -0.73242,0.62256 -1.41357,0.87891 -0.67383,0.25634 -1.4502,0.25634 -1.28173,0 -1.97021,-0.62255 -0.68848,-0.62989 -0.68848,-1.60401 0,-0.57129 0.25635,-1.04004 0.26367,-0.47607 0.68115,-0.76172 0.42481,-0.28564 0.95215,-0.43213 0.38818,-0.10253 1.17188,-0.19775 1.59668,-0.19043 2.35107,-0.4541 0.007,-0.271 0.007,-0.34424 0,-0.80566 -0.37353,-1.13525 -0.50537,-0.44678 -1.50147,-0.44678 -0.93017,0 -1.37695,0.32959 -0.43945,0.32227 -0.65185,1.1499 l -1.28907,-0.17578 q 0.17578,-0.82764 0.57862,-1.33301 0.40283,-0.51269 1.16455,-0.78369 0.76172,-0.27832 1.76513,-0.27832 0.9961,0 1.61866,0.23438 0.62255,0.23437 0.91552,0.59326 0.29297,0.35156 0.41016,0.89355 0.0659,0.33692 0.0659,1.21582 l 0,1.75782 q 0,1.83837 0.0806,2.3291 0.0879,0.4834 0.33692,0.93017 l -1.37696,0 q -0.20507,-0.41015 -0.26367,-0.95947 z m -0.10986,-2.94434 q -0.71777,0.29297 -2.15332,0.49805 -0.81299,0.11719 -1.1499,0.26367 -0.33692,0.14649 -0.52002,0.43213 -0.18311,0.27832 -0.18311,0.62256 0,0.52734 0.39551,0.87891 0.40283,0.35156 1.17187,0.35156 0.76172,0 1.35499,-0.32959 0.59326,-0.33691 0.87158,-0.91553 0.2124,-0.44678 0.2124,-1.31836 l 0,-0.4834 z"
         inkscape:connector-curvature="0" />
    </g>
    <path
       style="opacity:1;fill:#000000;fill-opacity:1;stroke:#000000;stroke-width:1;stroke-linecap:round;stroke-linejoin:round;stroke-miterlimit:4;stroke-dasharray:none;stroke-opacity:1;marker-end:url(#marker4828)"
       d="m 250,802.36216 125.00001,0"
       id="path4820"
       inkscape:connector-curvature="0" />
    <path
       style="opacity:1;fill:#000000;fill-opacity:1;stroke:#000000;stroke-width:1;stroke-linecap:round;stroke-linejoin:round;stroke-miterlimit:4;stroke-dasharray:none;stroke-opacity:1;marker-end:url(#marker4828-9)"
       d="m 250,727.36216 125.00001,0"
       id="path4820-0"
       inkscape:connector-curvature="0" />
  </g>
</svg>
