<?xml version="1.0" encoding="UTF-8" standalone="no"?>
<!-- Created with Inkscape (http://www.inkscape.org/) -->

<svg
   xmlns:dc="http://purl.org/dc/elements/1.1/"
   xmlns:cc="http://creativecommons.org/ns#"
   xmlns:rdf="http://www.w3.org/1999/02/22-rdf-syntax-ns#"
   xmlns:svg="http://www.w3.org/2000/svg"
   xmlns="http://www.w3.org/2000/svg"
   xmlns:sodipodi="http://sodipodi.sourceforge.net/DTD/sodipodi-0.dtd"
   xmlns:inkscape="http://www.inkscape.org/namespaces/inkscape"
   width="400"
   height="400"
   viewBox="0 0 400.00001 400.00001"
   id="svg2"
   version="1.1"
   inkscape:version="0.91 r13725"
   sodipodi:docname="transaction-commit.svg">
  <defs
     id="defs4" />
  <sodipodi:namedview
     id="base"
     pagecolor="#ffffff"
     bordercolor="#666666"
     borderopacity="1.0"
     inkscape:pageopacity="0.0"
     inkscape:pageshadow="2"
     inkscape:zoom="1.979899"
     inkscape:cx="150.30105"
     inkscape:cy="213.42878"
     inkscape:document-units="px"
     inkscape:current-layer="layer1"
     showgrid="true"
     units="px"
     inkscape:window-width="1920"
     inkscape:window-height="1043"
     inkscape:window-x="0"
     inkscape:window-y="18"
     inkscape:window-maximized="0"
     inkscape:object-nodes="true"
     inkscape:snap-smooth-nodes="true"
     inkscape:snap-object-midpoints="true"
     inkscape:snap-nodes="true"
     inkscape:snap-others="true"
     inkscape:object-paths="true">
    <inkscape:grid
       type="xygrid"
       id="grid4133"
       spacingx="25.000001"
       spacingy="25.000001"
       empspacing="4" />
  </sodipodi:namedview>
  <metadata
     id="metadata7">
    <rdf:RDF>
      <cc:Work
         rdf:about="">
        <dc:format>image/svg+xml</dc:format>
        <dc:type
           rdf:resource="http://purl.org/dc/dcmitype/StillImage" />
        <dc:title></dc:title>
        <dc:creator>
          <cc:Agent>
            <dc:title>Ben N</dc:title>
          </cc:Agent>
        </dc:creator>
      </cc:Work>
    </rdf:RDF>
  </metadata>
  <g
     inkscape:label="Layer 1"
     inkscape:groupmode="layer"
     id="layer1"
     transform="translate(0,-652.36216)">
    <g
       id="g4310"
       transform="translate(2.9999999e-6,-12.500024)">
      <circle
         style="opacity:1;fill:#008000;fill-opacity:1;stroke:#000000;stroke-width:1;stroke-linecap:round;stroke-linejoin:round;stroke-miterlimit:4;stroke-dasharray:none;stroke-opacity:1"
         id="circle4143"
         cx="200"
         cy="977.36218"
         r="37.5" />
      <g
         id="g4238">
        <path
           inkscape:connector-curvature="0"
           d="m 223.64991,981.46372 0.19043,1.16455 q -0.55664,0.11718 -0.9961,0.11718 -0.71777,0 -1.11328,-0.22705 -0.3955,-0.22705 -0.55664,-0.59326 -0.16113,-0.37353 -0.16113,-1.56006 l 0,-4.47509 -0.9668,0 0,-1.0254 0.9668,0 0,-1.92626 1.31103,-0.79102 0,2.71728 1.32569,0 0,1.0254 -1.32569,0 0,4.54834 q 0,0.56396 0.0659,0.72509 0.0732,0.16114 0.22705,0.25635 0.16114,0.0952 0.4541,0.0952 0.21973,0 0.57862,-0.0513 z m -6.21094,-8.042 0,-1.51611 1.31836,0 0,1.51611 -1.31836,0 z m 0,9.2212 0,-7.77833 1.31836,0 0,7.77833 -1.31836,0 z m -12.51709,0 0,-7.77833 1.1792,0 0,1.09131 q 0.36621,-0.57129 0.97412,-0.91552 0.60791,-0.35157 1.38428,-0.35157 0.86426,0 1.41357,0.35889 0.55664,0.35889 0.78369,1.00342 0.92286,-1.36231 2.40235,-1.36231 1.15722,0 1.77978,0.64453 0.62256,0.63721 0.62256,1.97022 l 0,5.33936 -1.31103,0 0,-4.89991 q 0,-0.79101 -0.13184,-1.13525 -0.12451,-0.35156 -0.46143,-0.56397 -0.33691,-0.2124 -0.79101,-0.2124 -0.82031,0 -1.36231,0.54932 -0.54199,0.54199 -0.54199,1.74316 l 0,4.51905 -1.31836,0 0,-5.05372 q 0,-0.8789 -0.32226,-1.31836 -0.32227,-0.43945 -1.05469,-0.43945 -0.55664,0 -1.03272,0.29297 -0.46875,0.29297 -0.68115,0.85693 -0.2124,0.56397 -0.2124,1.62598 l 0,4.03565 -1.31836,0 z m -12.50976,0 0,-7.77833 1.17919,0 0,1.09131 q 0.36622,-0.57129 0.97413,-0.91552 0.60791,-0.35157 1.38427,-0.35157 0.86426,0 1.41358,0.35889 0.55664,0.35889 0.78369,1.00342 0.92285,-1.36231 2.40234,-1.36231 1.15723,0 1.77979,0.64453 0.62256,0.63721 0.62256,1.97022 l 0,5.33936 -1.31104,0 0,-4.89991 q 0,-0.79101 -0.13184,-1.13525 -0.12451,-0.35156 -0.46142,-0.56397 -0.33691,-0.2124 -0.79102,-0.2124 -0.82031,0 -1.3623,0.54932 -0.54199,0.54199 -0.54199,1.74316 l 0,4.51905 -1.31836,0 0,-5.05372 q 0,-0.8789 -0.32227,-1.31836 -0.32226,-0.43945 -1.05469,-0.43945 -0.55664,0 -1.03271,0.29297 -0.46875,0.29297 -0.68115,0.85693 -0.21241,0.56397 -0.21241,1.62598 l 0,4.03565 -1.31835,0 z m -8.84034,-3.88916 q 0,-2.16065 1.20118,-3.20069 1.00341,-0.86426 2.44628,-0.86426 1.60401,0 2.62207,1.05469 1.01807,1.04736 1.01807,2.90039 0,1.50147 -0.4541,2.36572 -0.44678,0.85694 -1.31104,1.33301 -0.85693,0.47608 -1.875,0.47608 -1.6333,0 -2.64404,-1.04737 -1.00342,-1.04736 -1.00342,-3.01757 z m 1.35498,0 q 0,1.49414 0.65186,2.24121 0.65185,0.73974 1.64062,0.73974 0.98145,0 1.6333,-0.74707 0.65186,-0.74707 0.65186,-2.27783 0,-1.44287 -0.65918,-2.18262 -0.65185,-0.74707 -1.62598,-0.74707 -0.98877,0 -1.64062,0.73975 -0.65186,0.73974 -0.65186,2.23389 z m -3.28857,1.04003 1.29639,0.16846 q -0.21241,1.34033 -1.09131,2.10205 -0.87158,0.7544 -2.146,0.7544 -1.59668,0 -2.5708,-1.04004 -0.9668,-1.04737 -0.9668,-2.99561 0,-1.25976 0.41748,-2.20459 0.41748,-0.94482 1.26709,-1.41357 0.85694,-0.47608 1.86036,-0.47608 1.26709,0 2.07275,0.64453 0.80566,0.63721 1.03271,1.81641 l -1.28173,0.19776 q -0.18311,-0.7837 -0.65186,-1.1792 -0.46143,-0.39551 -1.1206,-0.39551 -0.9961,0 -1.61866,0.71777 -0.62256,0.71045 -0.62256,2.25586 0,1.56738 0.60059,2.27783 0.60059,0.71045 1.56738,0.71045 0.77637,0 1.29639,-0.47607 0.52002,-0.47608 0.65918,-1.46485 z"
           style="font-style:normal;font-variant:normal;font-weight:normal;font-stretch:normal;font-size:medium;line-height:125%;font-family:sans-serif;-inkscape-font-specification:sans-serif;text-align:start;writing-mode:lr-tb;text-anchor:start;fill:#000000;fill-opacity:1;stroke:none;stroke-width:2;stroke-linecap:round;stroke-linejoin:round;stroke-miterlimit:4;stroke-dasharray:none;stroke-opacity:1"
           id="path4215" />
      </g>
    </g>
    <g
       id="g4315"
       transform="translate(2.9999999e-6,12.499972)">
      <circle
         r="37.5"
         cy="702.36218"
         cx="200"
         id="path4139"
         style="opacity:1;fill:#ffffff;fill-opacity:1;stroke:#000000;stroke-width:1;stroke-linecap:round;stroke-linejoin:round;stroke-miterlimit:4;stroke-dasharray:none;stroke-opacity:1" />
      <g
         transform="translate(79.665683,-53.166595)"
         id="text4217"
         style="font-style:normal;font-variant:normal;font-weight:normal;font-stretch:normal;font-size:15px;line-height:125%;font-family:sans-serif;-inkscape-font-specification:sans-serif;text-align:start;writing-mode:lr-tb;text-anchor:start;opacity:1;fill:#000000;fill-opacity:1;stroke:none;stroke-width:2;stroke-linecap:round;stroke-linejoin:round;stroke-miterlimit:4;stroke-dasharray:none;stroke-opacity:1">
        <path
           inkscape:connector-curvature="0"
           d="m 134.45175,759.50946 0.19043,1.16455 q -0.55664,0.11719 -0.9961,0.11719 -0.71777,0 -1.11328,-0.22705 -0.39551,-0.22705 -0.55664,-0.59327 -0.16113,-0.37353 -0.16113,-1.56005 l 0,-4.4751 -0.9668,0 0,-1.02539 0.9668,0 0,-1.92627 1.31103,-0.79102 0,2.71729 1.32569,0 0,1.02539 -1.32569,0 0,4.54834 q 0,0.56396 0.0659,0.7251 0.0732,0.16113 0.22705,0.25634 0.16114,0.0952 0.4541,0.0952 0.21973,0 0.57862,-0.0513 z m -7.90283,1.1792 0,-7.77832 1.18652,0 0,1.1792 q 0.4541,-0.82764 0.83496,-1.09131 0.38818,-0.26367 0.84961,-0.26367 0.6665,0 1.35498,0.4248 l -0.4541,1.22315 q -0.4834,-0.28565 -0.9668,-0.28565 -0.43213,0 -0.77637,0.26367 -0.34423,0.25635 -0.49072,0.71778 -0.21973,0.70312 -0.21973,1.53808 l 0,4.07227 -1.31835,0 z m -3.25928,-0.95947 q -0.73242,0.62255 -1.41358,0.8789 -0.67382,0.25635 -1.45019,0.25635 -1.28174,0 -1.97022,-0.62256 -0.68847,-0.62988 -0.68847,-1.604 0,-0.57129 0.25634,-1.04004 0.26368,-0.47608 0.68116,-0.76172 0.4248,-0.28565 0.95215,-0.43213 0.38818,-0.10254 1.17187,-0.19775 1.59668,-0.19043 2.35107,-0.45411 0.007,-0.27099 0.007,-0.34423 0,-0.80567 -0.37354,-1.13526 -0.50537,-0.44678 -1.50146,-0.44678 -0.93018,0 -1.37695,0.32959 -0.43946,0.32227 -0.65186,1.14991 l -1.28906,-0.17578 q 0.17578,-0.82764 0.57861,-1.33301 0.40283,-0.5127 1.16455,-0.78369 0.76172,-0.27832 1.76514,-0.27832 0.99609,0 1.61865,0.23437 0.62257,0.23438 0.91553,0.59326 0.29297,0.35157 0.41015,0.89356 0.0659,0.33691 0.0659,1.21582 l 0,1.75781 q 0,1.83838 0.0806,2.3291 0.0879,0.4834 0.33691,0.93018 l -1.37695,0 q -0.20508,-0.41016 -0.26367,-0.95947 z m -0.10987,-2.94434 q -0.71777,0.29297 -2.15332,0.49805 -0.81298,0.11718 -1.1499,0.26367 -0.33691,0.14648 -0.52002,0.43213 -0.1831,0.27832 -0.1831,0.62256 0,0.52734 0.39551,0.8789 0.40283,0.35156 1.17187,0.35156 0.76172,0 1.35498,-0.32959 0.59326,-0.33691 0.87158,-0.91552 0.2124,-0.44678 0.2124,-1.31836 l 0,-0.4834 z m -6.24755,2.72461 0.19043,1.16455 q -0.55664,0.11719 -0.9961,0.11719 -0.71777,0 -1.11328,-0.22705 -0.39551,-0.22705 -0.55664,-0.59327 -0.16113,-0.37353 -0.16113,-1.56005 l 0,-4.4751 -0.9668,0 0,-1.02539 0.9668,0 0,-1.92627 1.31103,-0.79102 0,2.71729 1.32569,0 0,1.02539 -1.32569,0 0,4.54834 q 0,0.56396 0.0659,0.7251 0.0732,0.16113 0.22705,0.25634 0.16113,0.0952 0.4541,0.0952 0.21973,0 0.57862,-0.0513 z m -10.90577,-1.14258 1.30372,-0.20508 q 0.10986,0.78369 0.60791,1.20117 0.50537,0.41748 1.40625,0.41748 0.9082,0 1.34765,-0.36621 0.43946,-0.37353 0.43946,-0.87158 0,-0.44678 -0.38819,-0.70312 -0.27099,-0.17578 -1.34765,-0.44678 -1.4502,-0.36621 -2.01416,-0.62988 -0.55665,-0.271 -0.84961,-0.73975 -0.28565,-0.47607 -0.28565,-1.04736 0,-0.52002 0.23438,-0.95948 0.2417,-0.44677 0.65185,-0.73974 0.30762,-0.22705 0.83496,-0.38086 0.53467,-0.16113 1.14258,-0.16113 0.91553,0 1.604,0.26367 0.69581,0.26367 1.0254,0.71777 0.32959,0.44678 0.4541,1.20117 l -1.28907,0.17578 q -0.0879,-0.60058 -0.51269,-0.9375 -0.41748,-0.33691 -1.18652,-0.33691 -0.90821,0 -1.29639,0.30029 -0.38818,0.3003 -0.38818,0.70313 0,0.25635 0.16113,0.46142 0.16113,0.21241 0.50537,0.35157 0.19775,0.0732 1.16455,0.33691 1.39893,0.37354 1.94824,0.61524 0.55664,0.23437 0.87158,0.68847 0.31495,0.4541 0.31495,1.12793 0,0.65918 -0.38819,1.24512 -0.38086,0.57861 -1.10596,0.90088 -0.72509,0.31494 -1.64062,0.31494 -1.51611,0 -2.31445,-0.62988 -0.79102,-0.62989 -1.01075,-1.86768 z"
           id="path4230" />
      </g>
    </g>
    <g
       id="g4300"
       transform="translate(-2.0000001e-6,24.999996)">
      <rect
         y="752.36218"
         x="125"
         height="49.999931"
         width="150"
         id="rect4137"
         style="opacity:1;fill:#ffffff;fill-opacity:1;stroke:#000000;stroke-width:1;stroke-linecap:round;stroke-linejoin:round;stroke-miterlimit:4;stroke-dasharray:none;stroke-opacity:1" />
      <g
         id="text4248"
         style="font-style:normal;font-variant:normal;font-weight:normal;font-stretch:normal;font-size:15px;line-height:125%;font-family:sans-serif;-inkscape-font-specification:sans-serif;text-align:start;writing-mode:lr-tb;text-anchor:start;opacity:1;fill:#000000;fill-opacity:1;stroke:none;stroke-width:2;stroke-linecap:round;stroke-linejoin:round;stroke-miterlimit:4;stroke-dasharray:none;stroke-opacity:1">
        <path
           inkscape:connector-curvature="0"
           d="m 235.92896,781.26231 -1.31836,0 0,-8.40088 q -0.47607,0.4541 -1.25244,0.9082 -0.76904,0.4541 -1.38428,0.68115 l 0,-1.27441 q 1.10596,-0.52002 1.9336,-1.25977 0.82763,-0.73974 1.17187,-1.43554 l 0.84961,0 0,10.78125 z m -17.10937,0 0,-7.77833 1.18652,0 0,1.10596 q 0.85693,-1.28174 2.47559,-1.28174 0.70312,0 1.28906,0.25635 0.59326,0.24902 0.88623,0.65918 0.29297,0.41016 0.41016,0.97412 0.0732,0.36621 0.0732,1.28174 l 0,4.78272 -1.31836,0 0,-4.73145 q 0,-0.80566 -0.15381,-1.20117 -0.15381,-0.40283 -0.54932,-0.63721 -0.38818,-0.2417 -0.91552,-0.2417 -0.84229,0 -1.45752,0.53467 -0.60791,0.53467 -0.60791,2.02881 l 0,4.24805 -1.31836,0 z m -8.84033,-3.88916 q 0,-2.16065 1.20117,-3.20069 1.00342,-0.86426 2.44629,-0.86426 1.604,0 2.62207,1.05469 1.01806,1.04736 1.01806,2.90039 0,1.50147 -0.4541,2.36572 -0.44678,0.85694 -1.31103,1.33301 -0.85694,0.47608 -1.875,0.47608 -1.6333,0 -2.64405,-1.04737 -1.00341,-1.04736 -1.00341,-3.01757 z m 1.35498,0 q 0,1.49414 0.65185,2.24121 0.65186,0.73974 1.64063,0.73974 0.98144,0 1.6333,-0.74707 0.65185,-0.74707 0.65185,-2.27783 0,-1.44287 -0.65918,-2.18262 -0.65185,-0.74707 -1.62597,-0.74707 -0.98877,0 -1.64063,0.73975 -0.65185,0.73974 -0.65185,2.23389 z m -4.19678,-5.33204 0,-1.51611 1.31836,0 0,1.51611 -1.31836,0 z m 0,9.2212 0,-7.77833 1.31836,0 0,7.77833 -1.31836,0 z m -1.28906,-1.1792 0.19043,1.16455 q -0.55664,0.11718 -0.9961,0.11718 -0.71777,0 -1.11328,-0.22705 -0.39551,-0.22705 -0.55664,-0.59326 -0.16113,-0.37353 -0.16113,-1.56006 l 0,-4.47509 -0.9668,0 0,-1.0254 0.9668,0 0,-1.92626 1.31103,-0.79102 0,2.71728 1.32569,0 0,1.0254 -1.32569,0 0,4.54834 q 0,0.56396 0.0659,0.72509 0.0732,0.16114 0.22705,0.25635 0.16113,0.0952 0.4541,0.0952 0.21973,0 0.57862,-0.0513 z m -6.15235,0.21972 q -0.73242,0.62256 -1.41357,0.87891 -0.67383,0.25635 -1.4502,0.25635 -1.28174,0 -1.97021,-0.62256 -0.68848,-0.62988 -0.68848,-1.60401 0,-0.57129 0.25635,-1.04004 0.26367,-0.47607 0.68115,-0.76171 0.42481,-0.28565 0.95215,-0.43213 0.38818,-0.10254 1.17187,-0.19776 1.59668,-0.19043 2.35108,-0.4541 0.007,-0.27099 0.007,-0.34424 0,-0.80566 -0.37353,-1.13525 -0.50537,-0.44678 -1.50147,-0.44678 -0.93017,0 -1.37695,0.32959 -0.43945,0.32227 -0.65186,1.1499 l -1.28906,-0.17578 q 0.17578,-0.82763 0.57862,-1.333 0.40283,-0.5127 1.16455,-0.7837 0.76172,-0.27832 1.76513,-0.27832 0.9961,0 1.61866,0.23438 0.62255,0.23437 0.91552,0.59326 0.29297,0.35156 0.41016,0.89356 0.0659,0.33691 0.0659,1.21582 l 0,1.75781 q 0,1.83838 0.0806,2.3291 0.0879,0.4834 0.33692,0.93018 l -1.37696,0 q -0.20507,-0.41016 -0.26367,-0.95948 z m -0.10986,-2.94433 q -0.71777,0.29297 -2.15332,0.49804 -0.81299,0.11719 -1.1499,0.26368 -0.33692,0.14648 -0.52002,0.43212 -0.18311,0.27832 -0.18311,0.62256 0,0.52735 0.39551,0.87891 0.40283,0.35156 1.17187,0.35156 0.76172,0 1.35498,-0.32959 0.59327,-0.33691 0.87159,-0.91553 0.2124,-0.44677 0.2124,-1.31835 l 0,-0.4834 z m -9.99024,3.90381 0,-7.77833 1.18653,0 0,1.1792 q 0.4541,-0.82763 0.83496,-1.0913 0.38818,-0.26368 0.84961,-0.26368 0.6665,0 1.35498,0.42481 l -0.4541,1.22314 q -0.4834,-0.28564 -0.9668,-0.28564 -0.43213,0 -0.77637,0.26367 -0.34423,0.25635 -0.49072,0.71777 -0.21973,0.70313 -0.21973,1.53809 l 0,4.07227 -1.31836,0 z m -3.01025,-2.50489 1.36231,0.16846 q -0.32227,1.19385 -1.19385,1.85303 -0.87158,0.65918 -2.22656,0.65918 -1.70655,0 -2.70997,-1.04737 -0.99609,-1.05468 -0.99609,-2.95166 0,-1.96289 1.01074,-3.04687 1.01075,-1.08399 2.62207,-1.08399 1.56006,0 2.54883,1.06202 0.98877,1.06201 0.98877,2.98828 0,0.11718 -0.007,0.35156 l -5.80078,0 q 0.0732,1.28174 0.72509,1.96289 0.65186,0.68115 1.62598,0.68115 0.7251,0 1.23779,-0.38086 0.5127,-0.38086 0.81299,-1.21582 z m -4.32861,-2.13135 4.34326,0 q -0.0879,-0.98144 -0.49805,-1.47216 -0.62988,-0.76172 -1.6333,-0.76172 -0.9082,0 -1.53076,0.60791 -0.61523,0.60791 -0.68115,1.62597 z m -9.34571,7.61719 0,-10.75928 1.20118,0 0,1.01075 q 0.4248,-0.59326 0.95947,-0.88623 0.53467,-0.3003 1.29639,-0.3003 0.99609,0 1.75781,0.5127 0.76172,0.51269 1.1499,1.45019 0.38818,0.93018 0.38818,2.04346 0,1.19385 -0.43212,2.15332 -0.42481,0.95215 -1.24512,1.46485 -0.81299,0.50537 -1.71387,0.50537 -0.65918,0 -1.18652,-0.27832 -0.52002,-0.27832 -0.85694,-0.70313 l 0,3.78662 -1.31836,0 z m 1.19385,-6.82617 q 0,1.50147 0.60791,2.21924 0.60791,0.71777 1.47217,0.71777 0.87891,0 1.50147,-0.73974 0.62988,-0.74707 0.62988,-2.30713 0,-1.48682 -0.61524,-2.22657 -0.60791,-0.73974 -1.45752,-0.73974 -0.84228,0 -1.49414,0.79101 -0.64453,0.7837 -0.64453,2.28516 z m -10.03418,-0.0439 q 0,-2.16065 1.20117,-3.20069 1.00342,-0.86426 2.44629,-0.86426 1.60401,0 2.62207,1.05469 1.01807,1.04736 1.01807,2.90039 0,1.50147 -0.4541,2.36572 -0.44678,0.85694 -1.31104,1.33301 -0.85693,0.47608 -1.875,0.47608 -1.6333,0 -2.64404,-1.04737 -1.00342,-1.04736 -1.00342,-3.01757 z m 1.35498,0 q 0,1.49414 0.65186,2.24121 0.65185,0.73974 1.64062,0.73974 0.98145,0 1.6333,-0.74707 0.65186,-0.74707 0.65186,-2.27783 0,-1.44287 -0.65918,-2.18262 -0.65186,-0.74707 -1.62598,-0.74707 -0.98877,0 -1.64062,0.73975 -0.65186,0.73974 -0.65186,2.23389 z"
           id="path4297" />
      </g>
    </g>
    <g
       id="g4305"
       transform="translate(-2.6392578e-5,-2.5617187e-5)">
      <rect
         style="opacity:1;fill:#ffffff;fill-opacity:1;stroke:#000000;stroke-width:1;stroke-linecap:round;stroke-linejoin:round;stroke-miterlimit:4;stroke-dasharray:none;stroke-opacity:1"
         id="rect4141"
         width="150"
         height="49.999935"
         x="125.00002"
         y="852.36218" />
      <g
         id="text4252"
         style="font-style:normal;font-variant:normal;font-weight:normal;font-stretch:normal;font-size:15px;line-height:125%;font-family:sans-serif;-inkscape-font-specification:sans-serif;text-align:start;writing-mode:lr-tb;text-anchor:start;opacity:1;fill:#000000;fill-opacity:1;stroke:none;stroke-width:2;stroke-linecap:round;stroke-linejoin:round;stroke-miterlimit:4;stroke-dasharray:none;stroke-opacity:1">
        <path
           inkscape:connector-curvature="0"
           d="m 230.46877,881.24033 0,-7.77832 1.18652,0 0,1.10596 q 0.85693,-1.28174 2.47559,-1.28174 0.70312,0 1.28906,0.25635 0.59326,0.24902 0.88623,0.65918 0.29297,0.41015 0.41016,0.97412 0.0732,0.36621 0.0732,1.28174 l 0,4.78271 -1.31836,0 0,-4.73144 q 0,-0.80567 -0.15381,-1.20117 -0.15381,-0.40284 -0.54932,-0.63721 -0.38818,-0.2417 -0.91552,-0.2417 -0.84229,0 -1.45752,0.53467 -0.60791,0.53467 -0.60791,2.02881 l 0,4.24804 -1.31836,0 z m -12.50977,0 0,-7.77832 1.18653,0 0,1.10596 q 0.85693,-1.28174 2.47558,-1.28174 0.70313,0 1.28906,0.25635 0.59327,0.24902 0.88623,0.65918 0.29297,0.41015 0.41016,0.97412 0.0732,0.36621 0.0732,1.28174 l 0,4.78271 -1.31836,0 0,-4.73144 q 0,-0.80567 -0.15381,-1.20117 -0.1538,-0.40284 -0.54931,-0.63721 -0.38819,-0.2417 -0.91553,-0.2417 -0.84228,0 -1.45752,0.53467 -0.60791,0.53467 -0.60791,2.02881 l 0,4.24804 -1.31836,0 z m -8.84033,-3.88916 q 0,-2.16064 1.20117,-3.20068 1.00342,-0.86426 2.44629,-0.86426 1.604,0 2.62207,1.05469 1.01807,1.04736 1.01807,2.90039 0,1.50146 -0.4541,2.36572 -0.44678,0.85694 -1.31104,1.33301 -0.85693,0.47607 -1.875,0.47607 -1.6333,0 -2.64404,-1.04736 -1.00342,-1.04736 -1.00342,-3.01758 z m 1.35498,0 q 0,1.49414 0.65186,2.24121 0.65185,0.73975 1.64062,0.73975 0.98145,0 1.6333,-0.74707 0.65186,-0.74707 0.65186,-2.27783 0,-1.44287 -0.65918,-2.18262 -0.65186,-0.74707 -1.62598,-0.74707 -0.98877,0 -1.64062,0.73975 -0.65186,0.73974 -0.65186,2.23388 z m -4.19678,-5.33203 0,-1.51611 1.31836,0 0,1.51611 -1.31836,0 z m 0,9.22119 0,-7.77832 1.31836,0 0,7.77832 -1.31836,0 z m -1.28906,-1.1792 0.19043,1.16455 q -0.55664,0.11719 -0.99609,0.11719 -0.71778,0 -1.11328,-0.22705 -0.39551,-0.22705 -0.55665,-0.59326 -0.16113,-0.37354 -0.16113,-1.56006 l 0,-4.4751 -0.9668,0 0,-1.02539 0.9668,0 0,-1.92627 1.31104,-0.79101 0,2.71728 1.32568,0 0,1.02539 -1.32568,0 0,4.54834 q 0,0.56397 0.0659,0.7251 0.0732,0.16113 0.22706,0.25635 0.16113,0.0952 0.4541,0.0952 0.21972,0 0.57861,-0.0513 z m -6.15234,0.21973 q -0.73243,0.62256 -1.41358,0.87891 -0.67383,0.25634 -1.45019,0.25634 -1.28174,0 -1.97022,-0.62255 -0.68847,-0.62989 -0.68847,-1.60401 0,-0.57129 0.25634,-1.04004 0.26368,-0.47607 0.68116,-0.76172 0.4248,-0.28564 0.95214,-0.43213 0.38819,-0.10253 1.17188,-0.19775 1.59668,-0.19043 2.35107,-0.4541 0.007,-0.271 0.007,-0.34424 0,-0.80566 -0.37354,-1.13525 -0.50537,-0.44678 -1.50146,-0.44678 -0.93018,0 -1.37696,0.32959 -0.43945,0.32227 -0.65185,1.1499 l -1.28906,-0.17578 q 0.17578,-0.82764 0.57861,-1.33301 0.40283,-0.51269 1.16455,-0.78369 0.76172,-0.27832 1.76514,-0.27832 0.99609,0 1.61865,0.23438 0.62256,0.23437 0.91553,0.59326 0.29297,0.35156 0.41015,0.89355 0.0659,0.33692 0.0659,1.21582 l 0,1.75782 q 0,1.83837 0.0806,2.3291 0.0879,0.4834 0.33691,0.93017 l -1.37695,0 q -0.20508,-0.41015 -0.26367,-0.95947 z m -0.10987,-2.94434 q -0.71777,0.29297 -2.15332,0.49805 -0.81299,0.11719 -1.1499,0.26367 -0.33691,0.14649 -0.52002,0.43213 -0.1831,0.27832 -0.1831,0.62256 0,0.52734 0.3955,0.87891 0.40284,0.35156 1.17188,0.35156 0.76172,0 1.35498,-0.32959 0.59326,-0.33691 0.87158,-0.91553 0.2124,-0.44678 0.2124,-1.31836 l 0,-0.4834 z m -9.99023,3.90381 0,-7.77832 1.18652,0 0,1.1792 q 0.4541,-0.82764 0.83496,-1.09131 0.38819,-0.26367 0.84961,-0.26367 0.66651,0 1.35498,0.42481 l -0.4541,1.22314 q -0.4834,-0.28564 -0.9668,-0.28564 -0.43212,0 -0.77636,0.26367 -0.34424,0.25635 -0.49072,0.71777 -0.21973,0.70313 -0.21973,1.53809 l 0,4.07226 -1.31836,0 z m -3.01025,-2.50488 1.3623,0.16846 q -0.32227,1.19384 -1.19385,1.85302 -0.87158,0.65918 -2.22656,0.65918 -1.70654,0 -2.70996,-1.04736 -0.99609,-1.05469 -0.99609,-2.95166 0,-1.96289 1.01074,-3.04687 1.01074,-1.08399 2.62207,-1.08399 1.56006,0 2.54883,1.06201 0.98877,1.06201 0.98877,2.98828 0,0.11719 -0.007,0.35157 l -5.80078,0 q 0.0732,1.28173 0.7251,1.96289 0.65185,0.68115 1.62597,0.68115 0.7251,0 1.2378,-0.38086 0.51269,-0.38086 0.81299,-1.21582 z m -4.32862,-2.13135 4.34326,0 q -0.0879,-0.98144 -0.49804,-1.47217 -0.62989,-0.76171 -1.6333,-0.76171 -0.90821,0 -1.53077,0.60791 -0.61523,0.60791 -0.68115,1.62597 z m -9.3457,7.61719 0,-10.75928 1.20117,0 0,1.01074 q 0.42481,-0.59326 0.95947,-0.88623 0.53467,-0.30029 1.29639,-0.30029 0.99609,0 1.75781,0.5127 0.76172,0.51269 1.1499,1.45019 0.38819,0.93018 0.38819,2.04346 0,1.19385 -0.43213,2.15332 -0.42481,0.95215 -1.24512,1.46484 -0.81299,0.50537 -1.71386,0.50537 -0.65918,0 -1.18653,-0.27832 -0.52002,-0.27832 -0.85693,-0.70312 l 0,3.78662 -1.31836,0 z m 1.19385,-6.82617 q 0,1.50146 0.60791,2.21924 0.60791,0.71777 1.47216,0.71777 0.87891,0 1.50147,-0.73975 0.62988,-0.74707 0.62988,-2.30713 0,-1.48681 -0.61523,-2.22656 -0.60791,-0.73974 -1.45752,-0.73974 -0.84229,0 -1.49414,0.79101 -0.64453,0.78369 -0.64453,2.28516 z m -10.03418,-0.0439 q 0,-2.16064 1.20117,-3.20068 1.00342,-0.86426 2.44629,-0.86426 1.604,0 2.62207,1.05469 1.01806,1.04736 1.01806,2.90039 0,1.50146 -0.4541,2.36572 -0.44677,0.85694 -1.31103,1.33301 -0.85694,0.47607 -1.875,0.47607 -1.6333,0 -2.64405,-1.04736 -1.00341,-1.04736 -1.00341,-3.01758 z m 1.35498,0 q 0,1.49414 0.65185,2.24121 0.65186,0.73975 1.64063,0.73975 0.98144,0 1.6333,-0.74707 0.65185,-0.74707 0.65185,-2.27783 0,-1.44287 -0.65918,-2.18262 -0.65185,-0.74707 -1.62597,-0.74707 -0.98877,0 -1.64063,0.73975 -0.65185,0.73974 -0.65185,2.23388 z"
           id="path4275" />
      </g>
    </g>
    <path
       style="opacity:1;fill:#008000;fill-opacity:1;stroke:#000000;stroke-width:1;stroke-linecap:round;stroke-linejoin:round;stroke-miterlimit:4;stroke-dasharray:none;stroke-opacity:1"
       d="m 200,752.36216 0,25"
       id="path4320"
       inkscape:connector-curvature="0" />
    <path
       style="opacity:1;fill:#008000;fill-opacity:1;stroke:#000000;stroke-width:1;stroke-linecap:round;stroke-linejoin:round;stroke-miterlimit:4;stroke-dasharray:none;stroke-opacity:1"
       d="m 200,827.36216 0,25"
       id="path4322"
       inkscape:connector-curvature="0" />
    <path
       style="opacity:1;fill:#008000;fill-opacity:1;stroke:#000000;stroke-width:1;stroke-linecap:round;stroke-linejoin:round;stroke-miterlimit:4;stroke-dasharray:none;stroke-opacity:1"
       d="m 200,902.36216 0,25"
       id="path4324"
       inkscape:connector-curvature="0" />
  </g>
</svg>
