<?xml version="1.0" encoding="UTF-8" standalone="no"?>
<!-- Created with Inkscape (http://www.inkscape.org/) -->

<svg
   xmlns:dc="http://purl.org/dc/elements/1.1/"
   xmlns:cc="http://creativecommons.org/ns#"
   xmlns:rdf="http://www.w3.org/1999/02/22-rdf-syntax-ns#"
   xmlns:svg="http://www.w3.org/2000/svg"
   xmlns="http://www.w3.org/2000/svg"
   xmlns:sodipodi="http://sodipodi.sourceforge.net/DTD/sodipodi-0.dtd"
   xmlns:inkscape="http://www.inkscape.org/namespaces/inkscape"
   width="500"
   height="250"
   viewBox="0 0 500.00001 250"
   id="svg2"
   version="1.1"
   inkscape:version="0.91 r13725"
   sodipodi:docname="xmas5.svg">
  <defs
     id="defs4" />
  <sodipodi:namedview
     id="base"
     pagecolor="#ffffff"
     bordercolor="#666666"
     borderopacity="1.0"
     inkscape:pageopacity="0.0"
     inkscape:pageshadow="2"
     inkscape:zoom="1.979899"
     inkscape:cx="332.80166"
     inkscape:cy="113.28494"
     inkscape:document-units="px"
     inkscape:current-layer="layer1"
     showgrid="false"
     units="px"
     inkscape:window-width="1920"
     inkscape:window-height="1043"
     inkscape:window-x="0"
     inkscape:window-y="18"
     inkscape:window-maximized="0"
     inkscape:snap-intersection-paths="true"
     inkscape:object-paths="true"
     inkscape:snap-smooth-nodes="true"
     inkscape:object-nodes="true"
     inkscape:snap-global="false" />
  <metadata
     id="metadata7">
    <rdf:RDF>
      <cc:Work
         rdf:about="">
        <dc:format>image/svg+xml</dc:format>
        <dc:type
           rdf:resource="http://purl.org/dc/dcmitype/StillImage" />
        <dc:title></dc:title>
        <dc:creator>
          <cc:Agent>
            <dc:title>Ben N</dc:title>
          </cc:Agent>
        </dc:creator>
      </cc:Work>
    </rdf:RDF>
  </metadata>
  <g
     inkscape:label="Layer 1"
     inkscape:groupmode="layer"
     id="layer1"
     transform="translate(0,-802.36216)">
    <g
       style="font-style:italic;font-variant:normal;font-weight:500;font-stretch:normal;font-size:35px;line-height:125%;font-family:Z003;-inkscape-font-specification:'Z003 Medium Italic';text-align:center;writing-mode:lr-tb;text-anchor:middle;opacity:1;fill:#00aad4;fill-opacity:1;stroke:none;stroke-width:2;stroke-linecap:butt;stroke-linejoin:round;stroke-miterlimit:4;stroke-dasharray:none;stroke-opacity:1"
       id="text4869">
      <path
         d="m 228.2959,925.56982 q -0.82031,0 -1.72608,-0.0855 -0.88867,-0.0684 -1.81152,-0.23925 -0.78613,-0.13672 -1.72607,-0.37598 -0.93994,-0.23926 -1.8628,-0.56396 l 0,-3.48633 q 0.87159,0.44433 1.70899,0.80322 0.8374,0.35889 1.72607,0.59814 0.85449,0.22217 1.67481,0.3418 0.8374,0.10254 1.69189,0.10254 2.83692,0 4.35791,-1.28174 0.76904,-0.64941 1.14502,-1.57226 0.37598,-0.92285 0.37598,-2.06787 0,-2.29004 -1.50391,-3.58887 -0.73486,-0.63233 -1.77734,-0.95703 -1.04248,-0.3418 -2.3584,-0.3418 l -2.63184,0 0,-2.83691 2.63184,0 q 2.39258,0 3.72559,-1.04248 1.31591,-1.02539 1.31591,-2.95655 0,-0.92285 -0.30761,-1.6748 -0.30762,-0.76904 -0.92286,-1.29883 -1.21337,-1.04248 -3.58886,-1.04248 -0.70069,0 -1.48682,0.0855 -0.78613,0.0854 -1.60644,0.25635 -1.65772,0.34179 -3.40088,1.02539 l 0,-3.17871 q 2.06787,-0.52979 3.6914,-0.82032 1.57227,-0.27343 2.88819,-0.27343 1.79443,0 3.29834,0.46142 1.52099,0.46143 2.64892,1.40137 1.05957,0.88867 1.62354,2.13623 0.58105,1.24756 0.58105,2.80273 0,1.11084 -0.30762,1.98243 -0.29052,0.87158 -0.85449,1.55517 -1.16211,1.38428 -3.41797,1.98242 2.51221,0.66651 3.84522,2.3584 0.70068,0.88867 1.0083,1.96533 0.32471,1.07666 0.32471,2.30713 0,1.70899 -0.58106,3.11035 -0.58105,1.38428 -1.76025,2.39258 -1.16211,0.99121 -2.81983,1.50391 -1.64062,0.51269 -3.81103,0.51269 z"
         style="font-style:normal;font-variant:normal;font-weight:normal;font-stretch:normal;font-family:Hack;-inkscape-font-specification:Hack;fill:#00aad4;stroke:none"
         id="path4929" />
      <path
         d="m 250.20508,925.56982 q -4.10156,0 -6.16944,-3.34961 -2.08496,-3.36669 -2.08496,-9.87792 0,-6.52833 2.08496,-9.89502 2.06788,-3.34961 6.16944,-3.34961 2.0166,0 3.57178,0.82031 1.55517,0.82031 2.61474,2.5293 1.02539,1.64062 1.55518,4.10156 0.52978,2.44385 0.52978,5.79346 0,3.3496 -0.52978,5.79345 -0.52979,2.44385 -1.55518,4.08447 -2.10205,3.34961 -6.18652,3.34961 z m 0,-2.73437 q 1.24756,0 2.13623,-0.6665 0.90576,-0.66651 1.48681,-1.93116 1.1792,-2.58056 1.1792,-7.8955 0,-5.33204 -1.1792,-7.89551 -0.58105,-1.28174 -1.46972,-1.94824 -0.88867,-0.66651 -2.15332,-0.66651 -2.40967,0 -3.58887,2.59766 -0.59814,1.28174 -0.90576,3.22998 -0.29053,1.93115 -0.29053,4.68262 0,5.33203 1.19629,7.8955 0.61524,1.33301 1.50391,1.96533 0.90576,0.63233 2.08496,0.63233 z m 0.0342,-4.52881 q -0.25635,0 -0.47852,-0.18799 -0.20508,-0.20508 -0.37597,-0.52978 -0.15381,-0.3418 -0.27344,-0.78614 -0.11963,-0.46142 -0.22217,-0.95703 -0.0855,-0.41015 -0.15381,-0.90576 -0.0684,-0.4956 -0.11963,-0.99121 -0.0513,-0.51269 -0.0855,-0.95703 -0.0342,-0.44434 -0.0342,-0.73486 0,-0.20508 0.0171,-0.59815 0.0171,-0.39307 0.0513,-0.87158 0.0513,-0.47852 0.10254,-0.99121 0.0684,-0.52979 0.1709,-1.0083 0.47852,-2.44385 1.33301,-2.44385 0.47851,0 0.80322,0.64941 0.3418,0.64942 0.58106,1.84571 0.0854,0.42724 0.1538,0.92285 0.0684,0.4956 0.11963,0.99121 0.0513,0.47852 0.0684,0.92285 0.0342,0.42725 0.0342,0.71777 0,0.1709 -0.0171,0.52979 0,0.35889 -0.0342,0.8374 -0.0342,0.46143 -0.10254,0.99121 -0.0513,0.52979 -0.13672,1.05957 -0.22216,1.26465 -0.59814,1.87989 -0.35889,0.61523 -0.80322,0.61523 z"
         style="font-style:normal;font-variant:normal;font-weight:normal;font-stretch:normal;font-family:Hack;-inkscape-font-specification:Hack;fill:#00aad4;stroke:none"
         id="path4931" />
      <path
         d="m 263.33008,922.78418 q 0,-0.32471 0.0854,-0.56397 0.10254,-0.25634 0.34179,-0.4956 0.97413,-1.02539 2.30713,-2.42676 1.33301,-1.41846 2.85401,-3.07617 0.87158,-0.93994 1.40136,-1.521 0.52979,-0.58105 0.87159,-0.95703 0.34179,-0.37597 0.54687,-0.61523 0.22217,-0.25635 0.46143,-0.54688 0.46142,-0.54687 0.80322,-0.99121 0.35889,-0.46142 0.63232,-0.85449 0.29053,-0.41016 0.49561,-0.78613 0.22217,-0.37598 0.39307,-0.75196 0.29052,-0.64941 0.44433,-1.29882 0.15381,-0.64942 0.15381,-1.36719 0,-1.02539 -0.30762,-1.86279 -0.30761,-0.8545 -0.93994,-1.45264 -1.26465,-1.21338 -3.46924,-1.21338 -1.53808,0 -3.24707,0.56396 -1.70898,0.56397 -3.62304,1.70899 l 0,-3.48633 q 0.88867,-0.42725 1.76025,-0.73486 0.88867,-0.32471 1.70898,-0.52979 0.8545,-0.22217 1.6919,-0.3247 0.8374,-0.10254 1.65771,-0.10254 1.77735,0 3.33252,0.47851 1.55518,0.47852 2.71729,1.50391 1.02539,0.90576 1.64062,2.22168 0.61524,1.29883 0.61524,2.93945 0,0.87158 -0.18799,1.70899 -0.18799,0.82031 -0.56397,1.65771 -0.18798,0.42725 -0.42724,0.8374 -0.23926,0.41016 -0.54688,0.8374 -0.29052,0.42725 -0.6665,0.90577 -0.37598,0.46142 -0.8374,1.0083 -0.49561,0.58105 -1.1792,1.35009 -0.6836,0.76905 -1.58936,1.74317 -0.64941,0.70068 -1.19629,1.26465 -0.54687,0.54687 -1.1792,1.1792 -0.61523,0.61523 -1.41845,1.41845 -0.78614,0.80323 -1.93115,2.01661 l 11.89453,0 0,2.90527 -15.50049,0 0,-2.29004 z"
         style="font-style:normal;font-variant:normal;font-weight:normal;font-stretch:normal;font-family:Hack;-inkscape-font-specification:Hack;fill:#00aad4;stroke:none"
         id="path4933" />
    </g>
    <g
       style="font-style:italic;font-variant:normal;font-weight:500;font-stretch:normal;font-size:35px;line-height:125%;font-family:Z003;-inkscape-font-specification:'Z003 Medium Italic';text-align:center;writing-mode:lr-tb;text-anchor:middle;opacity:1;fill:#00aad4;fill-opacity:1;stroke:none;stroke-width:2;stroke-linecap:butt;stroke-linejoin:round;stroke-miterlimit:4;stroke-dasharray:none;stroke-opacity:1"
       id="text4873">
      <path
         d="m 228.2959,957.79364 q -0.82031,0 -1.72608,-0.0855 -0.88867,-0.0684 -1.81152,-0.23926 -0.78613,-0.13672 -1.72607,-0.37597 -0.93994,-0.23926 -1.8628,-0.56397 l 0,-3.48633 q 0.87159,0.44434 1.70899,0.80323 0.8374,0.35888 1.72607,0.59814 0.85449,0.22217 1.67481,0.3418 0.8374,0.10254 1.69189,0.10254 2.83692,0 4.35791,-1.28174 0.76904,-0.64942 1.14502,-1.57227 0.37598,-0.92285 0.37598,-2.06787 0,-2.29004 -1.50391,-3.58887 -0.73486,-0.63232 -1.77734,-0.95703 -1.04248,-0.34179 -2.3584,-0.34179 l -2.63184,0 0,-2.83692 2.63184,0 q 2.39258,0 3.72559,-1.04248 1.31591,-1.02539 1.31591,-2.95654 0,-0.92285 -0.30761,-1.67481 -0.30762,-0.76904 -0.92286,-1.29882 -1.21337,-1.04248 -3.58886,-1.04248 -0.70069,0 -1.48682,0.0854 -0.78613,0.0855 -1.60644,0.25635 -1.65772,0.3418 -3.40088,1.02539 l 0,-3.17871 q 2.06787,-0.52978 3.6914,-0.82031 1.57227,-0.27344 2.88819,-0.27344 1.79443,0 3.29834,0.46143 1.52099,0.46142 2.64892,1.40137 1.05957,0.88867 1.62354,2.13623 0.58105,1.24755 0.58105,2.80273 0,1.11084 -0.30762,1.98242 -0.29052,0.87158 -0.85449,1.55518 -1.16211,1.38427 -3.41797,1.98242 2.51221,0.6665 3.84522,2.3584 0.70068,0.88867 1.0083,1.96533 0.32471,1.07666 0.32471,2.30713 0,1.70898 -0.58106,3.11035 -0.58105,1.38428 -1.76025,2.39258 -1.16211,0.99121 -2.81983,1.5039 -1.64062,0.5127 -3.81103,0.5127 z"
         style="font-style:normal;font-variant:normal;font-weight:normal;font-stretch:normal;font-family:Hack;-inkscape-font-specification:Hack;fill:#00aad4;stroke:none"
         id="path4922" />
      <path
         d="m 250.20508,957.79364 q -4.10156,0 -6.16944,-3.34961 -2.08496,-3.3667 -2.08496,-9.87793 0,-6.52832 2.08496,-9.89502 2.06788,-3.34961 6.16944,-3.34961 2.0166,0 3.57178,0.82031 1.55517,0.82032 2.61474,2.5293 1.02539,1.64063 1.55518,4.10156 0.52978,2.44385 0.52978,5.79346 0,3.34961 -0.52978,5.79346 -0.52979,2.44385 -1.55518,4.08447 -2.10205,3.34961 -6.18652,3.34961 z m 0,-2.73437 q 1.24756,0 2.13623,-0.66651 0.90576,-0.6665 1.48681,-1.93115 1.1792,-2.58057 1.1792,-7.89551 0,-5.33203 -1.1792,-7.89551 -0.58105,-1.28174 -1.46972,-1.94824 -0.88867,-0.6665 -2.15332,-0.6665 -2.40967,0 -3.58887,2.59765 -0.59814,1.28174 -0.90576,3.22998 -0.29053,1.93116 -0.29053,4.68262 0,5.33203 1.19629,7.89551 0.61524,1.33301 1.50391,1.96533 0.90576,0.63233 2.08496,0.63233 z m 0.0342,-4.52881 q -0.25635,0 -0.47852,-0.18799 -0.20508,-0.20508 -0.37597,-0.52979 -0.15381,-0.34179 -0.27344,-0.78613 -0.11963,-0.46143 -0.22217,-0.95703 -0.0855,-0.41016 -0.15381,-0.90576 -0.0684,-0.49561 -0.11963,-0.99121 -0.0513,-0.5127 -0.0855,-0.95703 -0.0342,-0.44434 -0.0342,-0.73487 0,-0.20508 0.0171,-0.59814 0.0171,-0.39307 0.0513,-0.87158 0.0513,-0.47852 0.10254,-0.99122 0.0684,-0.52978 0.1709,-1.0083 0.47852,-2.44384 1.33301,-2.44384 0.47851,0 0.80322,0.64941 0.3418,0.64941 0.58106,1.8457 0.0854,0.42725 0.1538,0.92285 0.0684,0.49561 0.11963,0.99122 0.0513,0.47851 0.0684,0.92285 0.0342,0.42724 0.0342,0.71777 0,0.1709 -0.0171,0.52979 0,0.35888 -0.0342,0.8374 -0.0342,0.46142 -0.10254,0.99121 -0.0513,0.52978 -0.13672,1.05957 -0.22216,1.26465 -0.59814,1.87988 -0.35889,0.61524 -0.80322,0.61524 z"
         style="font-style:normal;font-variant:normal;font-weight:normal;font-stretch:normal;font-family:Hack;-inkscape-font-specification:Hack;fill:#00aad4;stroke:none"
         id="path4924" />
      <path
         d="m 263.33008,955.008 q 0,-0.32471 0.0854,-0.56397 0.10254,-0.25635 0.34179,-0.4956 0.97413,-1.0254 2.30713,-2.42676 1.33301,-1.41846 2.85401,-3.07617 0.87158,-0.93995 1.40136,-1.521 0.52979,-0.58106 0.87159,-0.95703 0.34179,-0.37598 0.54687,-0.61524 0.22217,-0.25634 0.46143,-0.54687 0.46142,-0.54688 0.80322,-0.99121 0.35889,-0.46143 0.63232,-0.85449 0.29053,-0.41016 0.49561,-0.78614 0.22217,-0.37597 0.39307,-0.75195 0.29052,-0.64941 0.44433,-1.29883 0.15381,-0.64941 0.15381,-1.36719 0,-1.02539 -0.30762,-1.86279 -0.30761,-0.85449 -0.93994,-1.45264 -1.26465,-1.21337 -3.46924,-1.21337 -1.53808,0 -3.24707,0.56396 -1.70898,0.56397 -3.62304,1.70898 l 0,-3.48632 q 0.88867,-0.42725 1.76025,-0.73487 0.88867,-0.3247 1.70898,-0.52978 0.8545,-0.22217 1.6919,-0.32471 0.8374,-0.10254 1.65771,-0.10254 1.77735,0 3.33252,0.47852 1.55518,0.47851 2.71729,1.5039 1.02539,0.90577 1.64062,2.22168 0.61524,1.29883 0.61524,2.93946 0,0.87158 -0.18799,1.70898 -0.18799,0.82031 -0.56397,1.65772 -0.18798,0.42724 -0.42724,0.8374 -0.23926,0.41015 -0.54688,0.8374 -0.29052,0.42725 -0.6665,0.90576 -0.37598,0.46143 -0.8374,1.0083 -0.49561,0.58106 -1.1792,1.3501 -0.6836,0.76904 -1.58936,1.74316 -0.64941,0.70069 -1.19629,1.26465 -0.54687,0.54688 -1.1792,1.1792 -0.61523,0.61524 -1.41845,1.41846 -0.78614,0.80322 -1.93115,2.0166 l 11.89453,0 0,2.90527 -15.50049,0 0,-2.29003 z"
         style="font-style:normal;font-variant:normal;font-weight:normal;font-stretch:normal;font-family:Hack;-inkscape-font-specification:Hack;fill:#00aad4;stroke:none"
         id="path4926" />
    </g>
    <g
       style="font-style:italic;font-variant:normal;font-weight:500;font-stretch:normal;font-size:35px;line-height:125%;font-family:Z003;-inkscape-font-specification:'Z003 Medium Italic';text-align:center;writing-mode:lr-tb;text-anchor:middle;opacity:1;fill:#00aad4;fill-opacity:1;stroke:none;stroke-width:2;stroke-linecap:butt;stroke-linejoin:round;stroke-miterlimit:4;stroke-dasharray:none;stroke-opacity:1"
       id="text4877">
      <path
         d="m 228.2959,990.01752 q -0.82031,0 -1.72608,-0.0855 -0.88867,-0.0684 -1.81152,-0.23926 -0.78613,-0.13672 -1.72607,-0.37598 -0.93994,-0.23925 -1.8628,-0.56396 l 0,-3.48633 q 0.87159,0.44434 1.70899,0.80322 0.8374,0.35889 1.72607,0.59815 0.85449,0.22217 1.67481,0.34179 0.8374,0.10254 1.69189,0.10254 2.83692,0 4.35791,-1.28173 0.76904,-0.64942 1.14502,-1.57227 0.37598,-0.92285 0.37598,-2.06787 0,-2.29004 -1.50391,-3.58887 -0.73486,-0.63232 -1.77734,-0.95703 -1.04248,-0.3418 -2.3584,-0.3418 l -2.63184,0 0,-2.83691 2.63184,0 q 2.39258,0 3.72559,-1.04248 1.31591,-1.02539 1.31591,-2.95654 0,-0.92286 -0.30761,-1.67481 -0.30762,-0.76904 -0.92286,-1.29883 -1.21337,-1.04248 -3.58886,-1.04248 -0.70069,0 -1.48682,0.0855 -0.78613,0.0855 -1.60644,0.25635 -1.65772,0.3418 -3.40088,1.02539 l 0,-3.17871 q 2.06787,-0.52979 3.6914,-0.82031 1.57227,-0.27344 2.88819,-0.27344 1.79443,0 3.29834,0.46142 1.52099,0.46143 2.64892,1.40137 1.05957,0.88867 1.62354,2.13623 0.58105,1.24756 0.58105,2.80274 0,1.11084 -0.30762,1.98242 -0.29052,0.87158 -0.85449,1.55517 -1.16211,1.38428 -3.41797,1.98243 2.51221,0.6665 3.84522,2.35839 0.70068,0.88868 1.0083,1.96534 0.32471,1.07666 0.32471,2.30713 0,1.70898 -0.58106,3.11035 -0.58105,1.38427 -1.76025,2.39258 -1.16211,0.99121 -2.81983,1.5039 -1.64062,0.5127 -3.81103,0.5127 z"
         style="font-style:normal;font-variant:normal;font-weight:normal;font-stretch:normal;font-family:Hack;-inkscape-font-specification:Hack;fill:#00aad4;stroke:none"
         id="path4915" />
      <path
         d="m 250.20508,990.01752 q -4.10156,0 -6.16944,-3.34961 -2.08496,-3.3667 -2.08496,-9.87793 0,-6.52832 2.08496,-9.89502 2.06788,-3.34961 6.16944,-3.34961 2.0166,0 3.57178,0.82031 1.55517,0.82031 2.61474,2.5293 1.02539,1.64062 1.55518,4.10156 0.52978,2.44385 0.52978,5.79346 0,3.34961 -0.52978,5.79346 -0.52979,2.44384 -1.55518,4.08447 -2.10205,3.34961 -6.18652,3.34961 z m 0,-2.73438 q 1.24756,0 2.13623,-0.6665 0.90576,-0.66651 1.48681,-1.93115 1.1792,-2.58057 1.1792,-7.89551 0,-5.33203 -1.1792,-7.89551 -0.58105,-1.28174 -1.46972,-1.94824 -0.88867,-0.66651 -2.15332,-0.66651 -2.40967,0 -3.58887,2.59766 -0.59814,1.28174 -0.90576,3.22998 -0.29053,1.93115 -0.29053,4.68262 0,5.33203 1.19629,7.89551 0.61524,1.333 1.50391,1.96533 0.90576,0.63232 2.08496,0.63232 z m 0.0342,-4.52881 q -0.25635,0 -0.47852,-0.18798 -0.20508,-0.20508 -0.37597,-0.52979 -0.15381,-0.3418 -0.27344,-0.78613 -0.11963,-0.46143 -0.22217,-0.95703 -0.0855,-0.41016 -0.15381,-0.90577 -0.0684,-0.4956 -0.11963,-0.99121 -0.0513,-0.51269 -0.0855,-0.95703 -0.0342,-0.44433 -0.0342,-0.73486 0,-0.20508 0.0171,-0.59815 0.0171,-0.39306 0.0513,-0.87158 0.0513,-0.47851 0.10254,-0.99121 0.0684,-0.52978 0.1709,-1.0083 0.47852,-2.44385 1.33301,-2.44385 0.47851,0 0.80322,0.64942 0.3418,0.64941 0.58106,1.8457 0.0854,0.42725 0.1538,0.92285 0.0684,0.49561 0.11963,0.99121 0.0513,0.47852 0.0684,0.92285 0.0342,0.42725 0.0342,0.71778 0,0.1709 -0.0171,0.52978 0,0.35889 -0.0342,0.83741 -0.0342,0.46142 -0.10254,0.99121 -0.0513,0.52978 -0.13672,1.05957 -0.22216,1.26464 -0.59814,1.87988 -0.35889,0.61523 -0.80322,0.61523 z"
         style="font-style:normal;font-variant:normal;font-weight:normal;font-stretch:normal;font-family:Hack;-inkscape-font-specification:Hack;fill:#00aad4;stroke:none"
         id="path4917" />
      <path
         d="m 263.33008,987.23187 q 0,-0.3247 0.0854,-0.56396 0.10254,-0.25635 0.34179,-0.49561 0.97413,-1.02539 2.30713,-2.42676 1.33301,-1.41845 2.85401,-3.07617 0.87158,-0.93994 1.40136,-1.52099 0.52979,-0.58106 0.87159,-0.95703 0.34179,-0.37598 0.54687,-0.61524 0.22217,-0.25635 0.46143,-0.54687 0.46142,-0.54688 0.80322,-0.99122 0.35889,-0.46142 0.63232,-0.85449 0.29053,-0.41015 0.49561,-0.78613 0.22217,-0.37598 0.39307,-0.75195 0.29052,-0.64942 0.44433,-1.29883 0.15381,-0.64942 0.15381,-1.36719 0,-1.02539 -0.30762,-1.86279 -0.30761,-0.85449 -0.93994,-1.45264 -1.26465,-1.21338 -3.46924,-1.21338 -1.53808,0 -3.24707,0.56397 -1.70898,0.56396 -3.62304,1.70898 l 0,-3.48633 q 0.88867,-0.42724 1.76025,-0.73486 0.88867,-0.32471 1.70898,-0.52978 0.8545,-0.22217 1.6919,-0.32471 0.8374,-0.10254 1.65771,-0.10254 1.77735,0 3.33252,0.47851 1.55518,0.47852 2.71729,1.50391 1.02539,0.90576 1.64062,2.22168 0.61524,1.29883 0.61524,2.93945 0,0.87159 -0.18799,1.70899 -0.18799,0.82031 -0.56397,1.65771 -0.18798,0.42725 -0.42724,0.83741 -0.23926,0.41015 -0.54688,0.8374 -0.29052,0.42724 -0.6665,0.90576 -0.37598,0.46143 -0.8374,1.0083 -0.49561,0.58105 -1.1792,1.3501 -0.6836,0.76904 -1.58936,1.74316 -0.64941,0.70069 -1.19629,1.26465 -0.54687,0.54688 -1.1792,1.1792 -0.61523,0.61523 -1.41845,1.41846 -0.78614,0.80322 -1.93115,2.0166 l 11.89453,0 0,2.90527 -15.50049,0 0,-2.29004 z"
         style="font-style:normal;font-variant:normal;font-weight:normal;font-stretch:normal;font-family:Hack;-inkscape-font-specification:Hack;fill:#00aad4;stroke:none"
         id="path4919" />
    </g>
    <g
       style="font-style:italic;font-variant:normal;font-weight:500;font-stretch:normal;font-size:35px;line-height:125%;font-family:Z003;-inkscape-font-specification:'Z003 Medium Italic';text-align:center;writing-mode:lr-tb;text-anchor:middle;opacity:1;fill:#00aad4;fill-opacity:1;stroke:none;stroke-width:2;stroke-linecap:butt;stroke-linejoin:round;stroke-miterlimit:4;stroke-dasharray:none;stroke-opacity:1"
       id="text4881">
      <path
         d="m 228.2959,893.34595 q -0.82031,0 -1.72608,-0.0855 -0.88867,-0.0684 -1.81152,-0.23926 -0.78613,-0.13672 -1.72607,-0.37598 -0.93994,-0.23925 -1.8628,-0.56396 l 0,-3.48633 q 0.87159,0.44434 1.70899,0.80322 0.8374,0.35889 1.72607,0.59815 0.85449,0.22217 1.67481,0.34179 0.8374,0.10254 1.69189,0.10254 2.83692,0 4.35791,-1.28173 0.76904,-0.64942 1.14502,-1.57227 0.37598,-0.92285 0.37598,-2.06787 0,-2.29004 -1.50391,-3.58887 -0.73486,-0.63232 -1.77734,-0.95703 -1.04248,-0.3418 -2.3584,-0.3418 l -2.63184,0 0,-2.83691 2.63184,0 q 2.39258,0 3.72559,-1.04248 1.31591,-1.02539 1.31591,-2.95654 0,-0.92286 -0.30761,-1.67481 -0.30762,-0.76904 -0.92286,-1.29883 -1.21337,-1.04248 -3.58886,-1.04248 -0.70069,0 -1.48682,0.0855 -0.78613,0.0854 -1.60644,0.25635 -1.65772,0.3418 -3.40088,1.02539 l 0,-3.17871 q 2.06787,-0.52979 3.6914,-0.82031 1.57227,-0.27344 2.88819,-0.27344 1.79443,0 3.29834,0.46143 1.52099,0.46142 2.64892,1.40136 1.05957,0.88867 1.62354,2.13623 0.58105,1.24756 0.58105,2.80274 0,1.11084 -0.30762,1.98242 -0.29052,0.87158 -0.85449,1.55517 -1.16211,1.38428 -3.41797,1.98243 2.51221,0.6665 3.84522,2.3584 0.70068,0.88867 1.0083,1.96533 0.32471,1.07666 0.32471,2.30713 0,1.70898 -0.58106,3.11035 -0.58105,1.38427 -1.76025,2.39258 -1.16211,0.99121 -2.81983,1.5039 -1.64062,0.5127 -3.81103,0.5127 z"
         style="font-style:normal;font-variant:normal;font-weight:normal;font-stretch:normal;font-family:Hack;-inkscape-font-specification:Hack;fill:#00aad4;stroke:none"
         id="path4908" />
      <path
         d="m 250.20508,893.34595 q -4.10156,0 -6.16944,-3.34961 -2.08496,-3.3667 -2.08496,-9.87793 0,-6.52832 2.08496,-9.89502 2.06788,-3.34961 6.16944,-3.34961 2.0166,0 3.57178,0.82031 1.55517,0.82031 2.61474,2.5293 1.02539,1.64062 1.55518,4.10156 0.52978,2.44385 0.52978,5.79346 0,3.34961 -0.52978,5.79346 -0.52979,2.44384 -1.55518,4.08447 -2.10205,3.34961 -6.18652,3.34961 z m 0,-2.73438 q 1.24756,0 2.13623,-0.6665 0.90576,-0.66651 1.48681,-1.93115 1.1792,-2.58057 1.1792,-7.89551 0,-5.33203 -1.1792,-7.89551 -0.58105,-1.28174 -1.46972,-1.94824 -0.88867,-0.66651 -2.15332,-0.66651 -2.40967,0 -3.58887,2.59766 -0.59814,1.28174 -0.90576,3.22998 -0.29053,1.93115 -0.29053,4.68262 0,5.33203 1.19629,7.89551 0.61524,1.333 1.50391,1.96533 0.90576,0.63232 2.08496,0.63232 z m 0.0342,-4.52881 q -0.25635,0 -0.47852,-0.18798 -0.20508,-0.20508 -0.37597,-0.52979 -0.15381,-0.3418 -0.27344,-0.78613 -0.11963,-0.46143 -0.22217,-0.95703 -0.0855,-0.41016 -0.15381,-0.90577 -0.0684,-0.4956 -0.11963,-0.99121 -0.0513,-0.51269 -0.0855,-0.95703 -0.0342,-0.44433 -0.0342,-0.73486 0,-0.20508 0.0171,-0.59815 0.0171,-0.39306 0.0513,-0.87158 0.0513,-0.47851 0.10254,-0.99121 0.0684,-0.52978 0.1709,-1.0083 0.47852,-2.44385 1.33301,-2.44385 0.47851,0 0.80322,0.64942 0.3418,0.64941 0.58106,1.8457 0.0854,0.42725 0.1538,0.92285 0.0684,0.49561 0.11963,0.99121 0.0513,0.47852 0.0684,0.92285 0.0342,0.42725 0.0342,0.71778 0,0.1709 -0.0171,0.52978 0,0.35889 -0.0342,0.83741 -0.0342,0.46142 -0.10254,0.99121 -0.0513,0.52978 -0.13672,1.05957 -0.22216,1.26464 -0.59814,1.87988 -0.35889,0.61523 -0.80322,0.61523 z"
         style="font-style:normal;font-variant:normal;font-weight:normal;font-stretch:normal;font-family:Hack;-inkscape-font-specification:Hack;fill:#00aad4;stroke:none"
         id="path4910" />
      <path
         d="m 263.33008,890.5603 q 0,-0.3247 0.0854,-0.56396 0.10254,-0.25635 0.34179,-0.49561 0.97413,-1.02539 2.30713,-2.42676 1.33301,-1.41845 2.85401,-3.07617 0.87158,-0.93994 1.40136,-1.52099 0.52979,-0.58106 0.87159,-0.95703 0.34179,-0.37598 0.54687,-0.61524 0.22217,-0.25635 0.46143,-0.54687 0.46142,-0.54688 0.80322,-0.99121 0.35889,-0.46143 0.63232,-0.8545 0.29053,-0.41015 0.49561,-0.78613 0.22217,-0.37598 0.39307,-0.75195 0.29052,-0.64942 0.44433,-1.29883 0.15381,-0.64942 0.15381,-1.36719 0,-1.02539 -0.30762,-1.86279 -0.30761,-0.85449 -0.93994,-1.45264 -1.26465,-1.21338 -3.46924,-1.21338 -1.53808,0 -3.24707,0.56397 -1.70898,0.56396 -3.62304,1.70898 l 0,-3.48633 q 0.88867,-0.42724 1.76025,-0.73486 0.88867,-0.32471 1.70898,-0.52978 0.8545,-0.22217 1.6919,-0.32471 0.8374,-0.10254 1.65771,-0.10254 1.77735,0 3.33252,0.47851 1.55518,0.47852 2.71729,1.50391 1.02539,0.90576 1.64062,2.22168 0.61524,1.29883 0.61524,2.93945 0,0.87159 -0.18799,1.70899 -0.18799,0.82031 -0.56397,1.65771 -0.18798,0.42725 -0.42724,0.83741 -0.23926,0.41015 -0.54688,0.8374 -0.29052,0.42724 -0.6665,0.90576 -0.37598,0.46143 -0.8374,1.0083 -0.49561,0.58106 -1.1792,1.3501 -0.6836,0.76904 -1.58936,1.74316 -0.64941,0.70069 -1.19629,1.26465 -0.54687,0.54688 -1.1792,1.1792 -0.61523,0.61523 -1.41845,1.41846 -0.78614,0.80322 -1.93115,2.0166 l 11.89453,0 0,2.90527 -15.50049,0 0,-2.29004 z"
         style="font-style:normal;font-variant:normal;font-weight:normal;font-stretch:normal;font-family:Hack;-inkscape-font-specification:Hack;fill:#00aad4;stroke:none"
         id="path4912" />
    </g>
    <g
       style="font-style:italic;font-variant:normal;font-weight:500;font-stretch:normal;font-size:35px;line-height:125%;font-family:Z003;-inkscape-font-specification:'Z003 Medium Italic';text-align:center;writing-mode:lr-tb;text-anchor:middle;opacity:1;fill:#00aad4;fill-opacity:1;stroke:none;stroke-width:2;stroke-linecap:butt;stroke-linejoin:round;stroke-miterlimit:4;stroke-dasharray:none;stroke-opacity:1"
       id="text4885">
      <path
         d="m 228.2959,861.12207 q -0.82031,0 -1.72608,-0.0855 -0.88867,-0.0684 -1.81152,-0.23926 -0.78613,-0.13672 -1.72607,-0.37597 -0.93994,-0.23926 -1.8628,-0.56397 l 0,-3.48633 q 0.87159,0.44434 1.70899,0.80323 0.8374,0.35888 1.72607,0.59814 0.85449,0.22217 1.67481,0.3418 0.8374,0.10254 1.69189,0.10254 2.83692,0 4.35791,-1.28174 0.76904,-0.64942 1.14502,-1.57227 0.37598,-0.92285 0.37598,-2.06787 0,-2.29004 -1.50391,-3.58887 -0.73486,-0.63232 -1.77734,-0.95703 -1.04248,-0.34179 -2.3584,-0.34179 l -2.63184,0 0,-2.83692 2.63184,0 q 2.39258,0 3.72559,-1.04248 1.31591,-1.02539 1.31591,-2.95654 0,-0.92285 -0.30761,-1.67481 -0.30762,-0.76904 -0.92286,-1.29882 -1.21337,-1.04248 -3.58886,-1.04248 -0.70069,0 -1.48682,0.0854 -0.78613,0.0855 -1.60644,0.25635 -1.65772,0.3418 -3.40088,1.02539 l 0,-3.17871 q 2.06787,-0.52978 3.6914,-0.82031 1.57227,-0.27344 2.88819,-0.27344 1.79443,0 3.29834,0.46143 1.52099,0.46142 2.64892,1.40137 1.05957,0.88867 1.62354,2.13623 0.58105,1.24755 0.58105,2.80273 0,1.11084 -0.30762,1.98242 -0.29052,0.87158 -0.85449,1.55518 -1.16211,1.38428 -3.41797,1.98242 2.51221,0.6665 3.84522,2.3584 0.70068,0.88867 1.0083,1.96533 0.32471,1.07666 0.32471,2.30713 0,1.70898 -0.58106,3.11035 -0.58105,1.38428 -1.76025,2.39258 -1.16211,0.99121 -2.81983,1.5039 -1.64062,0.5127 -3.81103,0.5127 z"
         style="font-style:normal;font-variant:normal;font-weight:normal;font-stretch:normal;font-family:Hack;-inkscape-font-specification:Hack;fill:#00aad4;stroke:none"
         id="path4901" />
      <path
         d="m 250.20508,861.12207 q -4.10156,0 -6.16944,-3.34961 -2.08496,-3.3667 -2.08496,-9.87793 0,-6.52832 2.08496,-9.89502 2.06788,-3.34961 6.16944,-3.34961 2.0166,0 3.57178,0.82031 1.55517,0.82032 2.61474,2.5293 1.02539,1.64063 1.55518,4.10156 0.52978,2.44385 0.52978,5.79346 0,3.34961 -0.52978,5.79346 -0.52979,2.44385 -1.55518,4.08447 -2.10205,3.34961 -6.18652,3.34961 z m 0,-2.73437 q 1.24756,0 2.13623,-0.66651 0.90576,-0.6665 1.48681,-1.93115 1.1792,-2.58057 1.1792,-7.89551 0,-5.33203 -1.1792,-7.89551 -0.58105,-1.28173 -1.46972,-1.94824 -0.88867,-0.6665 -2.15332,-0.6665 -2.40967,0 -3.58887,2.59765 -0.59814,1.28174 -0.90576,3.22998 -0.29053,1.93116 -0.29053,4.68262 0,5.33203 1.19629,7.89551 0.61524,1.33301 1.50391,1.96533 0.90576,0.63233 2.08496,0.63233 z m 0.0342,-4.52881 q -0.25635,0 -0.47852,-0.18799 -0.20508,-0.20508 -0.37597,-0.52979 -0.15381,-0.34179 -0.27344,-0.78613 -0.11963,-0.46143 -0.22217,-0.95703 -0.0855,-0.41016 -0.15381,-0.90576 -0.0684,-0.49561 -0.11963,-0.99121 -0.0513,-0.5127 -0.0855,-0.95703 -0.0342,-0.44434 -0.0342,-0.73487 0,-0.20508 0.0171,-0.59814 0.0171,-0.39307 0.0513,-0.87158 0.0513,-0.47852 0.10254,-0.99122 0.0684,-0.52978 0.1709,-1.0083 0.47852,-2.44384 1.33301,-2.44384 0.47851,0 0.80322,0.64941 0.3418,0.64941 0.58106,1.8457 0.0854,0.42725 0.1538,0.92285 0.0684,0.49561 0.11963,0.99122 0.0513,0.47851 0.0684,0.92285 0.0342,0.42724 0.0342,0.71777 0,0.1709 -0.0171,0.52979 0,0.35888 -0.0342,0.8374 -0.0342,0.46142 -0.10254,0.99121 -0.0513,0.52978 -0.13672,1.05957 -0.22216,1.26465 -0.59814,1.87988 -0.35889,0.61524 -0.80322,0.61524 z"
         style="font-style:normal;font-variant:normal;font-weight:normal;font-stretch:normal;font-family:Hack;-inkscape-font-specification:Hack;fill:#00aad4;stroke:none"
         id="path4903" />
      <path
         d="m 263.33008,858.33643 q 0,-0.32471 0.0854,-0.56397 0.10254,-0.25635 0.34179,-0.4956 0.97413,-1.0254 2.30713,-2.42676 1.33301,-1.41846 2.85401,-3.07617 0.87158,-0.93995 1.40136,-1.521 0.52979,-0.58106 0.87159,-0.95703 0.34179,-0.37598 0.54687,-0.61524 0.22217,-0.25634 0.46143,-0.54687 0.46142,-0.54688 0.80322,-0.99121 0.35889,-0.46143 0.63232,-0.85449 0.29053,-0.41016 0.49561,-0.78614 0.22217,-0.37597 0.39307,-0.75195 0.29052,-0.64941 0.44433,-1.29883 0.15381,-0.64941 0.15381,-1.36719 0,-1.02539 -0.30762,-1.86279 -0.30761,-0.85449 -0.93994,-1.45264 -1.26465,-1.21337 -3.46924,-1.21337 -1.53808,0 -3.24707,0.56396 -1.70898,0.56397 -3.62304,1.70898 l 0,-3.48632 q 0.88867,-0.42725 1.76025,-0.73487 0.88867,-0.3247 1.70898,-0.52978 0.8545,-0.22217 1.6919,-0.32471 0.8374,-0.10254 1.65771,-0.10254 1.77735,0 3.33252,0.47852 1.55518,0.47851 2.71729,1.5039 1.02539,0.90577 1.64062,2.22168 0.61524,1.29883 0.61524,2.93946 0,0.87158 -0.18799,1.70898 -0.18799,0.82031 -0.56397,1.65772 -0.18798,0.42724 -0.42724,0.8374 -0.23926,0.41015 -0.54688,0.8374 -0.29052,0.42725 -0.6665,0.90576 -0.37598,0.46143 -0.8374,1.0083 -0.49561,0.58106 -1.1792,1.3501 -0.6836,0.76904 -1.58936,1.74317 -0.64941,0.70068 -1.19629,1.26464 -0.54687,0.54688 -1.1792,1.1792 -0.61523,0.61524 -1.41845,1.41846 -0.78614,0.80322 -1.93115,2.0166 l 11.89453,0 0,2.90527 -15.50049,0 0,-2.29003 z"
         style="font-style:normal;font-variant:normal;font-weight:normal;font-stretch:normal;font-family:Hack;-inkscape-font-specification:Hack;fill:#00aad4;stroke:none"
         id="path4905" />
    </g>
    <g
       style="font-style:italic;font-variant:normal;font-weight:500;font-stretch:normal;font-size:35px;line-height:125%;font-family:Z003;-inkscape-font-specification:'Z003 Medium Italic';text-align:center;writing-mode:lr-tb;text-anchor:middle;opacity:1;fill:#00aad4;fill-opacity:1;stroke:none;stroke-width:2;stroke-linecap:butt;stroke-linejoin:round;stroke-miterlimit:4;stroke-dasharray:none;stroke-opacity:1"
       id="text4889">
      <path
         d="m 228.2959,1022.2414 q -0.82031,0 -1.72608,-0.086 -0.88867,-0.068 -1.81152,-0.2392 -0.78613,-0.1367 -1.72607,-0.376 -0.93994,-0.2392 -1.8628,-0.564 l 0,-3.4863 q 0.87159,0.4444 1.70899,0.8032 0.8374,0.3589 1.72607,0.5982 0.85449,0.2222 1.67481,0.3418 0.8374,0.1025 1.69189,0.1025 2.83692,0 4.35791,-1.2817 0.76904,-0.6494 1.14502,-1.5723 0.37598,-0.9228 0.37598,-2.0679 0,-2.29 -1.50391,-3.5888 -0.73486,-0.6323 -1.77734,-0.9571 -1.04248,-0.3417 -2.3584,-0.3417 l -2.63184,0 0,-2.837 2.63184,0 q 2.39258,0 3.72559,-1.0424 1.31591,-1.0254 1.31591,-2.9566 0,-0.9228 -0.30761,-1.6748 -0.30762,-0.769 -0.92286,-1.29882 -1.21337,-1.04248 -3.58886,-1.04248 -0.70069,0 -1.48682,0.0855 -0.78613,0.0855 -1.60644,0.25635 -1.65772,0.34179 -3.40088,1.0254 l 0,-3.17872 q 2.06787,-0.52979 3.6914,-0.82032 1.57227,-0.27343 2.88819,-0.27343 1.79443,0 3.29834,0.46142 1.52099,0.46143 2.64892,1.40137 1.05957,0.88867 1.62354,2.13623 0.58105,1.24755 0.58105,2.80275 0,1.1108 -0.30762,1.9824 -0.29052,0.8716 -0.85449,1.5552 -1.16211,1.3843 -3.41797,1.9824 2.51221,0.6665 3.84522,2.3584 0.70068,0.8887 1.0083,1.9653 0.32471,1.0767 0.32471,2.3072 0,1.7089 -0.58106,3.1103 -0.58105,1.3843 -1.76025,2.3926 -1.16211,0.9912 -2.81983,1.5039 -1.64062,0.5127 -3.81103,0.5127 z"
         style="font-style:normal;font-variant:normal;font-weight:normal;font-stretch:normal;font-family:Hack;-inkscape-font-specification:Hack;fill:#00aad4;stroke:none"
         id="path4894" />
      <path
         d="m 250.20508,1022.2414 q -4.10156,0 -6.16944,-3.3496 -2.08496,-3.3667 -2.08496,-9.8779 0,-6.5284 2.08496,-9.89506 2.06788,-3.34961 6.16944,-3.34961 2.0166,0 3.57178,0.82031 1.55517,0.82031 2.61474,2.5293 1.02539,1.64066 1.55518,4.10156 0.52978,2.4438 0.52978,5.7935 0,3.3496 -0.52978,5.7934 -0.52979,2.4439 -1.55518,4.0845 -2.10205,3.3496 -6.18652,3.3496 z m 0,-2.7344 q 1.24756,0 2.13623,-0.6665 0.90576,-0.6665 1.48681,-1.9311 1.1792,-2.5806 1.1792,-7.8955 0,-5.3321 -1.1792,-7.8956 -0.58105,-1.28169 -1.46972,-1.9482 -0.88867,-0.6665 -2.15332,-0.6665 -2.40967,0 -3.58887,2.5977 -0.59814,1.2817 -0.90576,3.2299 -0.29053,1.9312 -0.29053,4.6827 0,5.332 1.19629,7.8955 0.61524,1.333 1.50391,1.9653 0.90576,0.6323 2.08496,0.6323 z m 0.0342,-4.5288 q -0.25635,0 -0.47852,-0.188 -0.20508,-0.2051 -0.37597,-0.5298 -0.15381,-0.3418 -0.27344,-0.7861 -0.11963,-0.4614 -0.22217,-0.957 -0.0855,-0.4102 -0.15381,-0.9058 -0.0684,-0.4956 -0.11963,-0.9912 -0.0513,-0.5127 -0.0855,-0.957 -0.0342,-0.4444 -0.0342,-0.7349 0,-0.2051 0.0171,-0.5981 0.0171,-0.3931 0.0513,-0.8716 0.0513,-0.4785 0.10254,-0.9912 0.0684,-0.5298 0.1709,-1.0083 0.47852,-2.4439 1.33301,-2.4439 0.47851,0 0.80322,0.6494 0.3418,0.6494 0.58106,1.8457 0.0854,0.4273 0.1538,0.9229 0.0684,0.4956 0.11963,0.9912 0.0513,0.4785 0.0684,0.9229 0.0342,0.4272 0.0342,0.7177 0,0.1709 -0.0171,0.5298 0,0.3589 -0.0342,0.8374 -0.0342,0.4614 -0.10254,0.9912 -0.0513,0.5298 -0.13672,1.0596 -0.22216,1.2646 -0.59814,1.8799 -0.35889,0.6152 -0.80322,0.6152 z"
         style="font-style:normal;font-variant:normal;font-weight:normal;font-stretch:normal;font-family:Hack;-inkscape-font-specification:Hack;fill:#00aad4;stroke:none"
         id="path4896" />
      <path
         d="m 263.33008,1019.4557 q 0,-0.3247 0.0854,-0.5639 0.10254,-0.2564 0.34179,-0.4956 0.97413,-1.0254 2.30713,-2.4268 1.33301,-1.4184 2.85401,-3.0762 0.87158,-0.9399 1.40136,-1.5209 0.52979,-0.5811 0.87159,-0.9571 0.34179,-0.376 0.54687,-0.6152 0.22217,-0.2564 0.46143,-0.5469 0.46142,-0.5469 0.80322,-0.9912 0.35889,-0.4614 0.63232,-0.8545 0.29053,-0.4101 0.49561,-0.7861 0.22217,-0.376 0.39307,-0.752 0.29052,-0.6494 0.44433,-1.2988 0.15381,-0.6494 0.15381,-1.3672 0,-1.0254 -0.30762,-1.8628 -0.30761,-0.8545 -0.93994,-1.45262 -1.26465,-1.21338 -3.46924,-1.21338 -1.53808,0 -3.24707,0.56396 -1.70898,0.56397 -3.62304,1.70894 l 0,-3.48628 q 0.88867,-0.42725 1.76025,-0.73486 0.88867,-0.32471 1.70898,-0.52979 0.8545,-0.22217 1.6919,-0.3247 0.8374,-0.10254 1.65771,-0.10254 1.77735,0 3.33252,0.47851 1.55518,0.47852 2.71729,1.50391 1.02539,0.90576 1.64062,2.22168 0.61524,1.29887 0.61524,2.93947 0,0.8716 -0.18799,1.709 -0.18799,0.8203 -0.56397,1.6577 -0.18798,0.4272 -0.42724,0.8374 -0.23926,0.4101 -0.54688,0.8374 -0.29052,0.4272 -0.6665,0.9057 -0.37598,0.4615 -0.8374,1.0083 -0.49561,0.5811 -1.1792,1.3501 -0.6836,0.7691 -1.58936,1.7432 -0.64941,0.7007 -1.19629,1.2647 -0.54687,0.5468 -1.1792,1.1792 -0.61523,0.6152 -1.41845,1.4184 -0.78614,0.8032 -1.93115,2.0166 l 11.89453,0 0,2.9053 -15.50049,0 0,-2.2901 z"
         style="font-style:normal;font-variant:normal;font-weight:normal;font-stretch:normal;font-family:Hack;-inkscape-font-specification:Hack;fill:#00aad4;stroke:none"
         id="path4898" />
    </g>
  </g>
</svg>
